<svg width="493" height="492" viewBox="0 0 493 492" fill="none" xmlns="http://www.w3.org/2000/svg">
<circle cx="246.5" cy="246" r="246" fill="#9AA2FD"/>
<circle cx="246.5" cy="246" r="246" fill="#949DFF"/>
<circle cx="246.5" cy="246" r="211" fill="#9AA2FD"/>
<circle cx="246.5" cy="246" r="211" fill="#99A1FF"/>
<circle cx="246.5" cy="246" r="177" fill="#9AA2FD"/>
<circle cx="246.5" cy="246" r="177" fill="#9EA6FF"/>
<path d="M335.9 55C334.329 46.7727 325.645 42.5733 321.5 41.5021C331.449 38.931 336.118 46.8584 337.209 51.1434C348.205 44.973 355.318 49.0009 357.5 51.7862C349.122 49.2152 339.609 52.8575 335.9 55Z" fill="#B4BAFF"/>
<path d="M101.3 71C100.34 66.2987 95.0333 63.899 92.5 63.2869C98.58 61.8177 101.433 66.3477 102.1 68.7963C108.82 65.2703 113.167 67.572 114.5 69.1635C109.38 67.6944 103.567 69.7757 101.3 71Z" fill="#B4BAFF"/>
<circle cx="246.5" cy="246" r="142" fill="#A3ABFF"/>
<path d="M106.084 253L30.5 286H460.5L386.998 253H106.084Z" fill="#8C96FF"/>
<path d="M219.98 191.64L205.7 214.84L233.09 247.37H260.71L286.46 214.29L270.52 191.64H219.98Z" fill="#3F4553"/>
<path d="M205.7 214.84C205.7 214.84 144.27 219.59 128.86 235.68C113.45 251.77 120.7 269.24 135.71 269.24C163.34 269.24 221.8 270.93 249.46 269.24L251.11 231.57L205.7 214.84Z" fill="#3F4553"/>
<path d="M284.87 214.04C284.87 214.04 349.2 219.59 364.61 235.68C380.02 251.77 371.14 262.43 357.76 269.24C338.93 278.83 271.06 277.24 235.86 265.59L242.37 231.57L284.87 214.04Z" fill="#3F4553"/>
<path d="M287.7 245.64L283.35 234.4L288.77 231.99C288.77 231.99 288.02 225.34 294.65 224.06C301.28 222.78 309.18 227.06 316.88 223.61C323.98 220.43 332.67 217.5 340.78 221.9C341.98 222.55 342.54 223.98 342.13 225.28L342.1 225.38C341.69 226.69 340.41 227.5 339.04 227.36C336.18 227.07 331.08 227.13 326.04 230.18C317.35 235.46 287.7 245.64 287.7 245.64Z" fill="#FEBBA0"/>
<path d="M338.31 246.28C338.31 246.28 295.38 238.65 204.95 237.47L196.22 249.31C196.22 249.31 218.72 262.17 239.84 266.82C260.96 271.47 333.87 286.11 366.43 263.56L338.31 246.28Z" fill="#3F4553"/>
<path d="M239.84 266.83C218.19 261.83 195.54 249.01 195.54 249.01L196.89 246.72" stroke="#6E758F" stroke-width="1.5925" stroke-miterlimit="10" stroke-linecap="round"/>
<path d="M204.95 237.47C204.95 237.47 304.3 235.2 330.81 250.58" stroke="#6E758F" stroke-width="1.5925" stroke-miterlimit="10" stroke-linecap="round"/>
<path d="M156.18 243.91C156.18 243.91 174.32 235.41 186.72 240.98" stroke="#6E758F" stroke-width="1.5925" stroke-miterlimit="10" stroke-linecap="round"/>
<path d="M198.31 247.35L204.94 237.25L198.31 233.66C198.31 233.66 195.99 227.85 189.49 226.05C182.98 224.26 178.35 227.15 170.94 223.11C164.11 219.38 155.67 215.79 147.25 219.54C146.01 220.09 145.33 221.47 145.64 222.8L145.66 222.9C145.97 224.24 147.18 225.14 148.55 225.11C151.42 225.04 156.51 225.5 161.29 228.94C169.54 234.88 198.31 247.35 198.31 247.35Z" fill="#FEBBA0"/>
<path d="M255.39 237.83L282.55 235.16" stroke="#6E758F" stroke-width="1.5925" stroke-miterlimit="10" stroke-linecap="round"/>
<path d="M220.85 226.06L236 237.03" stroke="#6E758F" stroke-width="1.5925" stroke-miterlimit="10" stroke-linecap="round"/>
<path d="M216.94 76.7702C217.58 83.0302 223.03 87.5902 229.11 86.9702C235.19 86.3502 239.6 80.7702 238.96 74.5202C238.32 68.2602 232.87 63.7002 226.79 64.3202C220.72 64.9302 216.31 70.5102 216.94 76.7702Z" fill="#3F4553"/>
<path d="M239.65 81.3202C239.65 81.3202 220.33 78.4002 217.29 60.1702C214.61 44.0602 225.42 31.1502 237.27 28.9202C237.28 28.9202 265.75 72.8002 239.65 81.3202Z" fill="#3F4553"/>
<path d="M240.09 30.6502C238.67 31.3502 237.32 32.2702 236.09 33.4602C225.08 44.0502 232.05 64.6102 241.91 73.8902C247.37 79.0202 255.35 81.4102 262.32 78.7902C272.51 74.9602 275.7 63.4202 273.63 53.1402C272.09 45.4802 267.84 38.2502 261.57 33.7502C255.3 29.2602 246.83 27.3602 240.09 30.6502Z" fill="#FDBCA0"/>
<path d="M238.26 67.6902C236.33 69.6002 232.97 70.3802 230.39 69.4702C227.81 68.5602 225.69 66.1302 225.02 63.3102C224.42 60.7802 225.07 57.9002 226.93 56.3502C228.79 54.8002 232.14 54.9002 233.73 56.9102L238.26 67.6902Z" fill="#FDBCA0"/>
<path d="M235.44 60.9702L237.47 97.3102C237.74 104.03 243.19 109.37 249.91 109.5C257.67 109.66 263.76 102.88 262.77 95.1802L258.67 61.4402L235.44 60.9702Z" fill="#FDBCA0"/>
<path d="M261.43 84.2202L260.92 79.2402C260.92 79.2402 250.92 82.3102 241.91 73.8802C241.91 73.8902 247.1 83.3602 261.43 84.2202Z" fill="#DF8370"/>
<path d="M231.47 55.4802C244.49 54.8102 256.37 46.0702 262.93 34.8102C262.93 34.8102 250.95 23.4402 233.44 30.0902C218.93 35.5902 231.47 55.4802 231.47 55.4802Z" fill="#3F4553"/>
<path d="M232.9 63.8402C231.4 63.9902 230.09 63.1802 229.97 62.0302C229.88 61.1602 230.49 60.3502 231.43 59.9302" stroke="#444359" stroke-width="1.1144" stroke-miterlimit="10" stroke-linecap="round"/>
<path d="M264.18 61.0002C264.48 60.0902 265 59.3702 265.58 58.6902L265.86 59.5702C265.2 59.3202 264.84 58.9402 264.47 58.5702C264.12 58.1802 263.81 57.7902 263.53 57.3702C262.97 56.5402 262.5 55.6602 262.16 54.7302C262.86 55.4402 263.5 56.1702 264.17 56.8702C264.51 57.2102 264.83 57.5602 265.18 57.8602C265.51 58.1502 265.9 58.4502 266.17 58.5202L266.98 58.7102L266.45 59.4002C265.91 60.1102 265.31 60.7702 264.48 61.2502C264.38 61.3102 264.26 61.2702 264.2 61.1802C264.17 61.1102 264.17 61.0502 264.18 61.0002Z" fill="#444359"/>
<path d="M267.11 64.1802C266.71 65.0002 266.03 65.7102 265.15 66.1402C264.28 66.5902 263.2 66.6802 262.24 66.4002C261.26 66.1302 260.5 65.4902 259.85 64.8302C259.56 64.4702 259.27 64.1002 259.03 63.7202C258.82 63.3102 258.6 62.9102 258.44 62.4902C258.81 62.7702 259.13 63.0702 259.45 63.3702L260.44 64.1902C261.14 64.6502 261.8 65.1502 262.56 65.3302C263.29 65.5602 264.07 65.5502 264.84 65.3402C265.6 65.1202 266.36 64.6902 267.11 64.1802Z" fill="#444359"/>
<path d="M256.64 51.1102C257.03 52.2702 257.25 53.4702 257.17 54.7602C257.12 55.3902 256.97 56.0802 256.5 56.6902C256.02 57.3102 255.21 57.5802 254.5 57.5602C253.77 57.5502 253.05 57.2302 252.56 56.7802C252.05 56.3302 251.65 55.8102 251.35 55.2602C250.75 54.1502 250.37 52.9902 250.18 51.7702C250.15 51.5802 250.28 51.4002 250.47 51.3602C250.65 51.3302 250.81 51.4402 250.86 51.6002L250.87 51.6202C251.21 52.7002 251.66 53.7902 252.24 54.7302C252.82 55.6402 253.61 56.4802 254.54 56.4502C255 56.4702 255.43 56.3502 255.69 56.0202C255.98 55.7002 256.12 55.1802 256.2 54.6502C256.35 53.5802 256.25 52.4002 256.07 51.2702V51.2502C256.04 51.0902 256.16 50.9302 256.32 50.9102C256.45 50.8902 256.59 50.9802 256.64 51.1102Z" fill="#444359"/>
<path d="M271.16 48.8402C271.49 49.8202 271.67 50.8202 271.65 51.8902C271.64 52.4202 271.54 53.0002 271.2 53.5502C270.87 54.1302 270.13 54.4902 269.49 54.4602C268.82 54.4502 268.21 54.1002 267.82 53.6902C267.42 53.2702 267.11 52.8202 266.88 52.3402C266.43 51.3802 266.15 50.4002 266.01 49.3702C265.98 49.1802 266.12 49.0002 266.32 48.9702C266.49 48.9502 266.65 49.0502 266.7 49.2102L266.71 49.2302C267 50.1302 267.35 51.0502 267.8 51.8502C268.25 52.6302 268.86 53.3802 269.53 53.3402C269.87 53.3502 270.14 53.2502 270.32 52.9702C270.52 52.6902 270.62 52.2602 270.68 51.8102C270.78 50.9102 270.7 49.9202 270.59 48.9802V48.9602C270.57 48.8002 270.69 48.6502 270.85 48.6202C270.98 48.6202 271.12 48.7102 271.16 48.8402Z" fill="#444359"/>
<path d="M281.96 100.61C281.87 94.5102 262.09 89.6302 262.09 89.6302C260.85 91.0002 258.72 93.3102 249.75 93.3102C241.17 93.3102 237.74 91.0902 236.4 89.6302H227.91C226.02 89.6302 224.29 90.7102 223.5 92.4302C206.49 129.64 216.05 171.2 219.97 191.63C220.33 193.51 255.83 192.24 271.84 193.51C275.3 193.8 282.3 122.78 281.96 100.61Z" fill="#FEE6C6"/>
<path d="M240.65 153.23C242.41 139.01 244.56 130.48 246.21 133.28C247.67 135.76 246.86 148.2 244.67 160.2C244.68 160.2 239.9 159.32 240.65 153.23Z" fill="#FEBBA0"/>
<path d="M252.27 153.23C250.51 139.01 248.36 130.48 246.71 133.28C245.25 135.76 246.06 148.2 248.25 160.2C248.24 160.2 253.02 159.32 252.27 153.23Z" fill="#FEBBA0"/>
<path d="M310.89 149.7H288.54L292.09 172.4L251.53 152.61C251.39 151.09 251.2 149.21 250.97 147.22C249.44 147.22 247.9 147.22 246.37 147.2C246.38 148.93 246.41 150.1 246.41 150.1C246.41 150.1 245.62 160.54 247.43 164.02C250.87 170.64 286.06 191.96 295.83 194.49C296.44 194.65 297.05 194.77 297.66 194.85C307.09 196.18 313.34 190.89 313.27 181.37L310.89 149.7Z" fill="#FEBBA0"/>
<path d="M241.55 147.12C241.2 149.36 240.89 151.52 240.65 153.23L201.26 171.47L202.92 149.71H180.57L178.2 181.4C178.14 190.92 184.39 196.2 193.81 194.88C194.42 194.79 195.03 194.67 195.64 194.52C205.41 191.99 238.14 174.3 245.13 163.98C247.2 160.93 246.22 150.66 246.22 150.66C246.22 150.66 246.22 149.24 246.18 147.22C244.64 147.19 243.1 147.16 241.55 147.12Z" fill="#FEBBA0"/>
<path d="M208.64 162.12C217.38 136.27 217.31 136.25 228.04 89.6402C220.86 90.1302 220.12 88.9602 214.46 91.9002C197.48 100.72 181.49 129.69 176.78 162.12H208.64Z" fill="#FEE6C6"/>
<path d="M286.46 159.57C281.32 141.26 262.09 89.6402 262.09 89.6402C281.32 88.9902 307.56 114.06 313.84 156.22L286.46 159.57Z" fill="#FEE6C6"/>
<path d="M281.97 119.14L277.92 152.42" stroke="#EED2AD" stroke-width="1.5925" stroke-miterlimit="10" stroke-linecap="round"/>
<path d="M212.32 124.6L215.54 160.2" stroke="#EED2AD" stroke-width="1.5925" stroke-miterlimit="10" stroke-linecap="round"/>
<path d="M384.748 92.0252C336.749 78.5251 343.748 119.025 353.748 119.025C357.857 119.025 366.373 120.025 376.749 120.025H408.249C448.248 120.025 459.749 117.358 460.249 116.525C463.749 90.0251 442.582 92.5251 431.249 95.5251C433.082 85.6918 431.149 65.8252 408.748 65.0252C386.348 64.2252 383.415 82.6918 384.748 92.0252Z" fill="#B4BAFF"/>
<path d="M47.2557 16.7874C26.2283 10.8992 29.2946 28.5638 33.6753 28.5638C35.4751 28.5638 39.2059 29 43.7514 29H57.5509C75.0738 29 80.1117 27.8369 80.331 27.4734C81.8643 15.9151 72.5916 17.0055 67.6267 18.314C68.4299 14.025 67.5828 5.35991 57.7696 5.01098C47.9564 4.66205 46.6715 12.7165 47.2557 16.7874Z" fill="#A6ADFB"/>
</svg>
