<svg width="29" height="28" viewBox="0 0 29 28" fill="none" xmlns="http://www.w3.org/2000/svg">
<circle cx="14.0332" cy="14" r="14" fill="#F2F2F2"/>
<path d="M9.57755 21.6879L9.5828 21.6932C9.74035 21.8405 9.94516 21.9509 10.1605 21.993C10.3758 22.0351 10.6069 22.014 10.8169 21.9299C11.0217 21.8457 11.2055 21.6932 11.3263 21.5038C11.4471 21.3197 11.5101 21.1041 11.5101 20.8779C11.5101 20.5834 11.3893 20.2888 11.1845 20.0837C10.9692 19.868 10.6856 19.7471 10.381 19.7471H10.3705C10.15 19.7471 9.9294 19.8154 9.73509 19.9575C9.55654 20.0837 9.41475 20.2573 9.33072 20.4624C9.24145 20.6728 9.22044 20.899 9.26771 21.1199C9.30972 21.3303 9.42 21.5301 9.57755 21.6879Z" stroke="#808080" stroke-width="1.5" stroke-miterlimit="10" stroke-linecap="round" stroke-linejoin="round"/>
<path d="M18.3165 20.0798L18.306 20.0693C18.0867 19.8604 17.8098 19.7402 17.5016 19.7402C17.1935 19.7402 16.9114 19.8604 16.692 20.0745C16.4726 20.2939 16.3682 20.576 16.3682 20.8737C16.3682 21.1767 16.4883 21.4587 16.7025 21.6729C16.9166 21.8871 17.1987 22.0072 17.5016 22.0072C17.8046 22.0072 18.0867 21.8871 18.3008 21.6729C18.515 21.4587 18.6351 21.1767 18.6351 20.8737C18.6351 20.5708 18.515 20.2887 18.3165 20.0798Z" stroke="#808080" stroke-width="1.5" stroke-miterlimit="10" stroke-linecap="round" stroke-linejoin="round"/>
<path d="M14.4052 18.4386C10.208 18.4386 8.70538 16.3465 8.07063 14.222C7.66905 12.8813 7.24805 9.021 7.24805 9.021H18.7059C22.7087 9.08577 21.7177 18.4386 14.4052 18.4386Z" stroke="#808080" stroke-width="1.5" stroke-miterlimit="10" stroke-linecap="round" stroke-linejoin="round"/>
<path d="M5.0332 7C6.01123 7 6.38042 7.34328 6.49053 7.45339C6.98279 7.90678 7.14471 8.57392 7.24834 9.16332L7.33902 9.74626" stroke="#808080" stroke-width="1.5" stroke-miterlimit="10" stroke-linecap="round"/>
</svg>
