<svg width="15" height="18" viewBox="0 0 15 18" fill="none" xmlns="http://www.w3.org/2000/svg">
<path d="M12.0407 1.67751C11.1919 0.982516 10.1995 0.484558 9.13491 0.219554C8.07037 -0.04545 6.96028 -0.0708948 5.88471 0.145055C4.50176 0.428588 3.22946 1.10368 2.21936 2.08991C1.20927 3.07615 0.503962 4.33195 0.187455 5.70773C-0.129051 7.08351 -0.0434131 8.52128 0.434168 9.84976C0.911749 11.1782 1.76114 12.3414 2.88116 13.2008C4.15993 14.1367 5.2487 15.3077 6.08926 16.6511L6.66199 17.6034C6.73473 17.7244 6.83753 17.8245 6.96039 17.894C7.08326 17.9635 7.22202 18 7.36317 18C7.50433 18 7.64308 17.9635 7.76595 17.894C7.88881 17.8245 7.99161 17.7244 8.06435 17.6034L8.61335 16.6887C9.34531 15.402 10.3433 14.2863 11.5408 13.416C12.4798 12.77 13.2557 11.9146 13.8075 10.9174C14.3593 9.92011 14.6718 8.80829 14.7204 7.66961C14.7689 6.53092 14.5522 5.39653 14.0873 4.35594C13.6224 3.31535 12.9221 2.39702 12.0415 1.67342L12.0407 1.67751ZM7.36235 10.6374C6.71507 10.6374 6.08232 10.4455 5.54412 10.0859C5.00592 9.72626 4.58645 9.21513 4.33874 8.61712C4.09104 8.01911 4.02623 7.36107 4.15251 6.72622C4.27878 6.09137 4.59048 5.50823 5.04818 5.05053C5.50588 4.59283 6.08903 4.28113 6.72387 4.15485C7.35872 4.02857 8.01676 4.09339 8.61477 4.34109C9.21279 4.5888 9.72392 5.00827 10.0835 5.54647C10.4431 6.08467 10.6351 6.71742 10.6351 7.3647C10.6351 8.23268 10.2903 9.06511 9.67652 9.67887C9.06277 10.2926 8.23033 10.6374 7.36235 10.6374Z" fill="#FF379B"/>
</svg>
