<svg width="119" height="42" viewBox="0 0 119 42" fill="none" xmlns="http://www.w3.org/2000/svg">
<g clip-path="url(#clip0_609_384)">
<path d="M1.18996 15.8878C1.64342 14.8009 2.19926 13.7595 2.84996 12.7778C3.34804 12.0238 3.90655 11.3114 4.51996 10.6478C5.22332 9.84601 6.00747 9.11882 6.85996 8.47781C7.23996 8.19781 7.64996 7.94784 8.01996 7.65784C8.38996 7.36784 8.88996 6.89782 9.35996 6.54782C10.4596 5.70437 11.6545 4.99285 12.92 4.42783C14.0174 3.93924 15.1593 3.55749 16.33 3.28784C17.3488 3.05254 18.3859 2.90533 19.43 2.84784C20.1194 2.80777 20.8105 2.80777 21.5 2.84784C22.0464 2.8693 22.5909 2.92607 23.13 3.01782C23.9325 3.14597 24.7271 3.3196 25.51 3.53784C27.2193 4.02705 28.8421 4.77937 30.32 5.76782C31.416 6.4631 32.4234 7.28916 33.32 8.22781C33.454 8.39438 33.6477 8.50205 33.86 8.52783H34.04C34.9165 8.78899 35.7695 9.1235 36.59 9.52783L37.59 9.93784C37.5765 9.88682 37.5598 9.83673 37.54 9.78784C37.4 9.57784 37.26 9.35784 37.11 9.15784C36.49 8.38784 35.88 7.59783 35.22 6.86783C34.4912 6.05075 33.684 5.30719 32.81 4.64783C31.6633 3.7638 30.4224 3.00922 29.11 2.39783C28.1474 1.92837 27.143 1.55005 26.11 1.26782C25.38 1.06782 24.64 0.897822 23.89 0.767822C23.14 0.637822 22.5 0.597813 21.8 0.507812C21.8 0.507812 21.73 0.507812 21.69 0.507812H19.06L18.39 0.58783C17.75 0.67783 17.09 0.707819 16.45 0.857819C15.45 1.07782 14.54 1.35782 13.59 1.63782C12.508 1.99646 11.4632 2.4586 10.47 3.01782C9.47208 3.56586 8.525 4.20171 7.63996 4.91782C6.85547 5.51492 6.12894 6.18454 5.46996 6.91782C4.98996 7.47782 4.46996 8.02782 4.03996 8.60782C3.40985 9.40884 2.85421 10.2657 2.37996 11.1678C1.70787 12.3565 1.16478 13.6137 0.75996 14.9178C0.58996 15.4778 0.44996 16.0478 0.32996 16.6278C0.20996 17.2078 0.119961 17.7078 0.0399609 18.2578C-0.00146404 18.5362 -0.0281678 18.8166 -0.0400391 19.0978C0.0470021 18.8952 0.123766 18.6882 0.18996 18.4778C0.54996 17.6478 0.84996 16.7478 1.18996 15.8878Z" fill="#E51A83"/>
<path d="M25.7601 40.1887C26.7818 39.9708 27.7849 39.6732 28.7601 39.2987C29.7701 38.9504 30.7339 38.4803 31.6301 37.8987C32.5292 37.3014 33.3786 36.6325 34.1701 35.8987C34.8001 35.3087 35.3901 34.6687 35.9701 34.0187C36.6793 33.2255 37.3089 32.3647 37.8501 31.4487C38.5862 30.2511 39.1898 28.9769 39.6501 27.6487C40.1346 26.3577 40.4701 25.0157 40.6501 23.6487C40.7301 22.9287 40.8201 22.1987 40.8501 21.4687C40.8801 20.7387 40.8501 20.1087 40.8501 19.4687C40.865 19.2823 40.865 19.095 40.8501 18.9087C40.7501 18.3733 40.7501 17.824 40.8501 17.2887C40.973 16.4 41.2686 15.5439 41.7201 14.7687C42.1696 13.9711 42.7955 13.287 43.5501 12.7687C43.8901 12.5287 44.2701 12.3287 44.6401 12.1087C44.2701 12.1087 43.9101 12.1087 43.5501 12.0387C43.0201 11.9787 42.4901 11.9087 41.9601 11.7987C40.8324 11.5428 39.7284 11.1915 38.6601 10.7487C37.7601 10.3887 36.8601 10.0287 35.9601 9.64866C35.1762 9.29185 34.3439 9.05262 33.4901 8.93867C32.7775 8.85853 32.0571 8.87872 31.3501 8.99867C30.5251 9.14436 29.7306 9.42835 29.0001 9.83866C28.1814 10.302 27.4365 10.8851 26.7901 11.5687C26.2467 12.1356 25.7703 12.763 25.3701 13.4387C24.9454 14.1496 24.5615 14.8841 24.2201 15.6387C23.8834 16.5056 23.4927 17.3506 23.0501 18.1687C22.4945 19.0627 21.8441 19.8942 21.1101 20.6487C20.7147 21.0654 20.2867 21.4499 19.8301 21.7987C18.9706 22.514 17.8777 22.8878 16.7601 22.8487H16.4801L16.5801 22.9287C17.4118 23.3222 18.349 23.4345 19.2501 23.2487C20.0572 23.1061 20.8244 22.7924 21.5001 22.3287C22.4138 21.7462 23.2276 21.0202 23.9101 20.1787C24.4037 19.6077 24.8613 19.0065 25.2801 18.3787C25.9401 17.3787 26.5601 16.2887 27.1501 15.2187C27.483 14.5711 27.889 13.9638 28.3601 13.4087C29.1412 12.5106 30.1064 11.7909 31.1901 11.2987C32.1178 10.8945 33.1182 10.6835 34.1301 10.6787C34.5527 10.6839 34.9741 10.7241 35.3901 10.7987C36.4334 10.9519 37.4459 11.2691 38.3901 11.7387C38.9126 11.9918 39.4503 12.2123 40.0001 12.3987C40.4741 12.5208 40.9549 12.6143 41.4401 12.6787L41.0001 12.8487C40.5842 12.9845 40.2008 13.2047 39.8738 13.4955C39.5469 13.7863 39.2835 14.1414 39.1001 14.5387C38.7152 15.4409 38.5048 16.408 38.4801 17.3887C38.4801 18.0987 38.4801 18.8087 38.4801 19.5187C38.4801 19.5787 38.4801 19.6287 38.4801 19.6887C38.4801 20.1587 38.5801 20.6387 38.5901 21.1087C38.5937 21.4869 38.5669 21.8647 38.5101 22.2387C38.4101 23.0187 38.3101 23.8087 38.1801 24.5787C37.9237 25.9144 37.4969 27.2117 36.9101 28.4387C36.3292 29.6461 35.6075 30.7807 34.7601 31.8187C34.1516 32.6305 33.465 33.3808 32.7101 34.0587C32.0701 34.5987 31.4501 35.1587 30.7701 35.6387C29.3604 36.6385 27.8102 37.4237 26.1701 37.9687C25.0239 38.3653 23.8362 38.6303 22.6301 38.7586C21.8901 38.8286 21.1501 38.8987 20.4101 38.9187C19.9189 38.9219 19.428 38.8952 18.9401 38.8387C18.498 38.8206 18.0573 38.7772 17.6201 38.7087C16.9535 38.582 16.2868 38.432 15.6201 38.2586C14.2734 37.9248 12.9759 37.4172 11.7601 36.7487L11.1201 36.4287C11.1201 36.4287 11.1201 36.4787 11.1201 36.4887C11.8701 37.0287 12.6101 37.5887 13.3701 38.1087C14.4242 38.8026 15.5637 39.3572 16.7601 39.7586C17.6606 40.0909 18.597 40.3158 19.5501 40.4287C20.1901 40.4987 20.8301 40.5687 21.4701 40.5887C22.3117 40.6369 23.156 40.6001 23.9901 40.4786C24.5901 40.3786 25.1501 40.3087 25.7601 40.1887Z" fill="#E51A83"/>
<path d="M2.67012 16.9831C2.94551 15.6736 3.37517 14.4015 3.95012 13.1931C4.49313 12.0606 5.13213 10.9766 5.86012 9.95312L5.72012 10.0931C5.45012 10.3931 5.18012 10.6931 4.93012 11.0031C4.48012 11.5731 4.02012 12.1531 3.60012 12.7531C2.96314 13.6358 2.41703 14.5806 1.97012 15.5732C1.72012 16.1032 1.49012 16.6431 1.29012 17.1931C0.974865 18.0376 0.747007 18.9122 0.610119 19.8031C0.530119 20.4531 0.40012 21.0931 0.38012 21.7431C0.296746 22.9534 0.363925 24.1694 0.580119 25.3631C0.697863 26.0771 0.851391 26.7846 1.04012 27.4831C1.46461 28.7898 2.04194 30.0418 2.76012 31.2131C3.50424 32.4686 4.37911 33.6418 5.37012 34.7131C6.12445 35.5459 6.95842 36.3028 7.86012 36.9731C8.61012 37.5231 9.40012 38.0231 10.1901 38.5131C11.2402 39.1498 12.3569 39.6696 13.5201 40.0631C14.8106 40.5492 16.1528 40.8847 17.5201 41.0631C18.2201 41.1431 18.9101 41.2231 19.6201 41.2631C20.1001 41.2631 20.6201 41.2631 21.0701 41.2631H21.2501C20.7101 41.1531 20.1601 41.1031 19.6301 40.9931C18.5697 40.7863 17.5267 40.4989 16.5101 40.1331C15.1808 39.6271 13.9209 38.9551 12.7601 38.1331C12.2301 37.7631 11.7601 37.3531 11.2301 36.9431C10.9501 36.7131 10.7101 36.4231 10.4501 36.1731C10.1901 35.9231 9.94012 35.6731 9.67012 35.4331C9.14012 34.9931 8.58012 34.5831 8.07012 34.1231C7.60329 33.7106 7.16557 33.2662 6.76012 32.7932C6.31012 32.2832 5.89012 31.7931 5.49012 31.2131C4.8028 30.2066 4.22297 29.1307 3.76012 28.0031C3.38368 27.1422 3.07605 26.2527 2.84012 25.3431C2.53471 24.2098 2.35694 23.0459 2.31012 21.8731C2.28216 20.8724 2.30887 19.8709 2.39012 18.8731C2.44828 18.2384 2.54176 17.6074 2.67012 16.9831V16.9831Z" fill="#E51A83"/>
<path d="M15.65 21.2337C15.65 21.0337 15.65 20.8237 15.65 20.6137C15.58 20.0437 15.52 19.4737 15.44 18.9037C15.36 18.3337 15.29 17.8437 15.16 17.3337C14.98 16.6437 14.75 15.9537 14.51 15.2837C14.3379 14.8096 14.049 14.3866 13.67 14.0537C13.4185 13.821 13.1024 13.6697 12.7634 13.6197C12.4243 13.5698 12.078 13.6234 11.77 13.7737C11.5606 13.8387 11.366 13.9443 11.1973 14.0845C11.0287 14.2248 10.8893 14.3968 10.7872 14.5909C10.685 14.785 10.6221 14.9973 10.602 15.2157C10.5819 15.4341 10.605 15.6543 10.67 15.8637C10.8373 16.5128 11.1146 17.1284 11.49 17.6837C12.1495 18.6743 12.8993 19.6016 13.73 20.4537C14.27 21.0137 14.84 21.5337 15.4 22.0737C15.4917 22.1565 15.5886 22.2333 15.69 22.3037C15.65 21.9437 15.66 21.5937 15.65 21.2337Z" fill="#E51A83"/>
<path d="M13.4999 22.8484C14.186 22.8884 14.8738 22.8884 15.5599 22.8484V22.7584C15.4499 22.6584 15.3299 22.5684 15.2199 22.4584C14.7599 22.0284 14.3199 21.5784 13.8299 21.1784C13.3399 20.7784 12.6299 20.1784 12.0099 19.7684C11.1505 19.0928 10.1644 18.5964 9.10991 18.3084C8.68291 18.1785 8.22691 18.1785 7.79991 18.3084C7.5662 18.4072 7.35618 18.5547 7.18377 18.7409C7.01137 18.927 6.88052 19.1478 6.79991 19.3884C6.64236 19.7113 6.59518 20.0769 6.66564 20.4292C6.7361 20.7815 6.92029 21.1009 7.18991 21.3384C7.55655 21.6516 7.98131 21.8894 8.43991 22.0384C9.19093 22.3187 9.96815 22.5231 10.7599 22.6484C11.6243 22.775 12.4964 22.8418 13.3699 22.8484H13.4999Z" fill="#E51A83"/>
<path d="M17.8501 13.3265C17.6078 13.3868 17.3825 13.5021 17.1918 13.6634C17.0011 13.8246 16.85 14.0275 16.7501 14.2565C16.3574 15.0719 16.1426 15.9616 16.1201 16.8665C16.1201 17.3865 16.1201 17.8665 16.1201 18.4265C16.1201 18.9865 16.1201 19.4265 16.1201 19.9065C16.1201 20.3865 16.2301 21.0865 16.2901 21.6765C16.2901 21.9365 16.3701 22.1865 16.4201 22.4765C16.4586 22.4452 16.4953 22.4118 16.5301 22.3765C16.9101 21.8665 17.3001 21.3765 17.6701 20.8365C18.4008 19.8361 19.0337 18.7678 19.5601 17.6465C20.0019 16.8279 20.216 15.9059 20.1801 14.9765C20.1601 14.6953 20.0782 14.4222 19.9401 14.1765C19.7178 13.8409 19.3993 13.5803 19.0264 13.4286C18.6535 13.277 18.2436 13.2414 17.8501 13.3265Z" fill="#E51A83"/>
<path d="M34.47 13.0779C34.4756 12.7611 34.3577 12.4545 34.1412 12.223C33.9246 11.9916 33.6266 11.8535 33.31 11.838C33.1442 11.8285 32.9782 11.8522 32.8216 11.9077C32.6651 11.9632 32.5212 12.0493 32.3983 12.161C32.2754 12.2727 32.176 12.4078 32.1059 12.5584C32.0358 12.7089 31.9964 12.872 31.99 13.038C31.9874 13.3731 32.1172 13.6957 32.3514 13.9354C32.5855 14.1752 32.9049 14.3127 33.24 14.318C33.4032 14.3207 33.5652 14.2904 33.7163 14.2289C33.8674 14.1675 34.0046 14.0761 34.1195 13.9602C34.2344 13.8444 34.3246 13.7066 34.3849 13.5549C34.4451 13.4033 34.4741 13.241 34.47 13.0779V13.0779Z" fill="#E51A83"/>
<path d="M118.46 23.13C118.4 22.5086 118.165 21.9169 117.783 21.4232C117.4 20.9295 116.886 20.554 116.3 20.34C114.833 19.7697 113.206 19.7697 111.74 20.34C111.662 20.3646 111.578 20.3646 111.5 20.34C110.84 20.0883 110.145 19.9431 109.44 19.91C108.669 19.8363 107.892 19.9424 107.17 20.22C106.81 20.36 106.49 20.57 106.17 20.75L105.61 19.6L105.81 19.55C106.342 19.4691 106.83 19.2088 107.194 18.8123C107.558 18.4158 107.775 17.9069 107.81 17.37C107.837 17.1003 107.797 16.8281 107.693 16.5776C107.589 16.3272 107.425 16.1064 107.215 15.935C107.005 15.7636 106.756 15.647 106.49 15.5955C106.223 15.544 105.949 15.5593 105.69 15.64C105.322 15.7755 104.918 15.7755 104.55 15.64C104.242 15.5335 103.915 15.4906 103.59 15.514C103.264 15.5374 102.947 15.6266 102.657 15.7762C102.367 15.9258 102.111 16.1327 101.903 16.3843C101.696 16.6359 101.542 16.927 101.45 17.24C101.437 17.3148 101.401 17.3836 101.347 17.4373C101.294 17.4909 101.225 17.5268 101.15 17.54C100.326 17.7617 99.6033 18.2607 99.1042 18.9528C98.6051 19.645 98.3599 20.4881 98.4099 21.34C98.3953 21.4721 98.3581 21.6006 98.2999 21.72C97.6361 20.9933 96.7833 20.4653 95.8368 20.1952C94.8903 19.925 93.8873 19.9232 92.9399 20.19V15.72H88.6899V25.65C88.6717 26.4548 88.9214 27.2427 89.3999 27.89C90.311 29.0467 91.6318 29.809 93.0891 30.0193C94.5465 30.2297 96.0289 29.8719 97.2299 29.02C97.5299 28.8 97.7799 28.53 98.0699 28.29C98.6556 29.1372 99.5158 29.7562 100.505 30.0422C101.495 30.3283 102.552 30.2639 103.5 29.86C103.5 30.06 103.6 30.01 103.7 30.01H108.97H109.11V24.21H109.55V30.01H113.76V24.17H114.16V30H118.46V23.25C118.451 23.2105 118.451 23.1696 118.46 23.13V23.13ZM97.2699 26.79C96.9779 27.3169 96.5496 27.7555 96.0299 28.06C95.3989 28.4386 94.6757 28.6359 93.9399 28.63C93.3904 28.6535 92.8412 28.5755 92.3199 28.4C91.6081 28.137 90.9821 27.6839 90.5099 27.09C90.165 26.6845 89.9707 26.1723 89.9599 25.64V17.49C89.9599 17.16 90.0399 17.08 90.3699 17.08H91.2799C91.4499 17.08 91.4999 17.08 91.4999 17.3C91.4999 18.69 91.4999 20.08 91.4999 21.48C91.4999 22.88 91.4999 24.05 91.4999 25.34C91.4838 25.6476 91.5562 25.9534 91.7087 26.221C91.8611 26.4886 92.0871 26.707 92.3599 26.85C93.0007 27.2397 93.7641 27.3753 94.4999 27.23C94.9465 27.1652 95.3619 26.9629 95.6881 26.651C96.0143 26.3391 96.2351 25.9333 96.3199 25.49C96.433 25.0949 96.4557 24.6795 96.3865 24.2744C96.3172 23.8694 96.1578 23.4851 95.9199 23.15C95.7704 22.9164 95.554 22.7333 95.299 22.6245C95.0439 22.5157 94.762 22.4863 94.4899 22.54C94.2797 22.5804 94.081 22.6667 93.9081 22.7929C93.7352 22.9191 93.5924 23.0821 93.4899 23.27C93.4899 23.27 93.4899 23.32 93.4899 23.33C93.4899 23.34 93.4899 23.62 93.4899 23.76C93.6195 23.7743 93.7503 23.7743 93.8799 23.76C94.135 23.6432 94.4098 23.5754 94.6899 23.56C94.997 23.5926 95.2837 23.7295 95.502 23.9479C95.7204 24.1663 95.8573 24.4529 95.8899 24.76C95.9062 25.0488 95.8524 25.3372 95.7329 25.6006C95.6134 25.864 95.4319 26.0946 95.2038 26.2725C94.9758 26.4504 94.708 26.5704 94.4235 26.6222C94.1389 26.674 93.846 26.6561 93.5699 26.57C93.1787 26.4303 92.8284 26.1953 92.5508 25.8863C92.2732 25.5773 92.077 25.2039 91.9799 24.8C91.869 24.4359 91.8366 24.0525 91.8849 23.675C91.9331 23.2975 92.061 22.9345 92.2599 22.61C92.4347 22.2649 92.7024 21.9754 93.0327 21.774C93.3631 21.5726 93.743 21.4673 94.1299 21.47C94.8874 21.4099 95.6451 21.5845 96.2999 21.97C96.69 22.2413 97.0286 22.5799 97.2999 22.97C97.6236 23.4688 97.7843 24.0559 97.7599 24.65C97.7946 25.3947 97.6252 26.1347 97.2699 26.79ZM102.7 17.64C102.799 17.4086 102.971 17.2156 103.189 17.0894C103.407 16.9633 103.66 16.9109 103.91 16.94C104.185 17.0084 104.452 17.1022 104.71 17.22C104.883 17.3395 105.093 17.3931 105.302 17.3711C105.511 17.3491 105.706 17.2529 105.85 17.1C105.91 17.0747 105.975 17.0617 106.04 17.0617C106.105 17.0617 106.17 17.0747 106.23 17.1C106.36 17.15 106.39 17.3 106.37 17.46C106.301 17.737 106.126 17.976 105.883 18.1256C105.64 18.2752 105.348 18.3234 105.07 18.26C104.763 18.1785 104.465 18.068 104.18 17.93C103.75 17.73 103.6 17.75 103.28 18.07C103.17 18.18 103.05 18.34 102.85 18.23C102.758 18.1686 102.692 18.0756 102.664 17.9686C102.637 17.8617 102.649 17.7483 102.7 17.65V17.64ZM100.04 20C100.245 19.6489 100.536 19.3561 100.886 19.1495C101.236 18.943 101.634 18.8295 102.04 18.82C102.442 18.7771 102.848 18.861 103.2 19.06C103.377 19.1836 103.541 19.3243 103.69 19.48C103.9 19.71 104.1 19.96 104.3 20.2C104.338 20.2649 104.365 20.336 104.38 20.41C104.02 20.47 103.7 20.55 103.38 20.59C103.3 20.59 103.17 20.5 103.11 20.42C102.863 20.1914 102.549 20.0477 102.214 20.0099C101.88 19.9722 101.542 20.0423 101.25 20.21C101.141 20.2866 101.05 20.3865 100.985 20.5023C100.919 20.6182 100.88 20.7472 100.87 20.88C100.87 21 100.87 21.05 100.69 21.06C100.51 21.07 100.22 21.15 99.9899 21.21C99.7599 21.27 99.7599 21.21 99.7499 21.05C99.7241 20.6772 99.8264 20.3068 100.04 20V20ZM117.15 28.52H115.61C115.61 28.42 115.61 28.33 115.61 28.24C115.61 26.83 115.61 25.42 115.61 24C115.644 23.7005 115.557 23.3997 115.37 23.1636C115.183 22.9274 114.909 22.7751 114.61 22.74C114.075 22.6315 113.521 22.659 113 22.82C112.894 22.8457 112.798 22.9005 112.722 22.9783C112.646 23.0561 112.593 23.1537 112.57 23.26C112.494 23.5513 112.447 23.8495 112.43 24.15C112.43 25.52 112.43 26.89 112.43 28.26V28.53H111.43C110.87 28.53 110.87 28.53 110.87 27.96C110.87 26.58 110.87 25.19 110.87 23.82C110.908 23.5948 110.856 23.3637 110.725 23.1767C110.594 22.9896 110.394 22.8615 110.17 22.82C109.585 22.6101 108.945 22.6101 108.36 22.82C108.16 22.8965 107.991 23.0348 107.875 23.2147C107.76 23.3947 107.706 23.6068 107.72 23.82V28.52H107.49H105.06C104.86 28.52 104.81 28.46 104.82 28.27C104.82 27.72 104.82 27.17 104.82 26.62C104.797 25.9497 104.731 25.2815 104.62 24.62C104.553 24.1732 104.35 23.7579 104.039 23.4305C103.727 23.1031 103.323 22.8795 102.88 22.79C102.417 22.6659 101.929 22.671 101.469 22.805C101.008 22.9391 100.594 23.1967 100.27 23.55C100.083 23.7638 99.9406 24.0129 99.8513 24.2825C99.762 24.5521 99.7275 24.8369 99.7499 25.12C99.7262 25.4568 99.7806 25.7945 99.909 26.1067C100.037 26.419 100.236 26.6973 100.49 26.92C100.599 27.0311 100.73 27.1186 100.875 27.1771C101.019 27.2355 101.174 27.2638 101.33 27.26C101.62 27.26 101.9 27.26 102.19 27.2C102.349 27.1591 102.498 27.0878 102.63 26.99C102.732 26.9319 102.815 26.845 102.869 26.7401C102.922 26.6352 102.943 26.5169 102.93 26.4C102.93 26.27 102.93 26.13 102.93 25.99C102.93 25.9628 102.924 25.9359 102.912 25.9115C102.9 25.8871 102.882 25.8661 102.86 25.85C102.86 25.85 102.76 25.85 102.71 25.85C102.66 25.85 102.43 26.07 102.27 26.16C102.069 26.289 101.836 26.36 101.597 26.3653C101.358 26.3706 101.123 26.31 100.916 26.1902C100.709 26.0703 100.54 25.8958 100.426 25.6859C100.312 25.4759 100.258 25.2386 100.27 25C100.287 24.6339 100.412 24.281 100.629 23.9857C100.846 23.6903 101.146 23.4657 101.49 23.34C101.706 23.3201 101.924 23.3201 102.14 23.34C102.542 23.2971 102.946 23.3914 103.287 23.6074C103.629 23.8235 103.887 24.1486 104.02 24.53C104.183 24.8664 104.265 25.2362 104.26 25.61C104.303 26.1309 104.238 26.6551 104.07 27.15C103.91 27.543 103.659 27.8921 103.337 28.1686C103.015 28.4451 102.632 28.641 102.22 28.74C101.559 28.8941 100.864 28.7867 100.28 28.44C99.4275 27.9658 98.7954 27.1757 98.5199 26.24C98.3381 25.6444 98.2936 25.0153 98.3899 24.4C98.4655 23.741 98.7574 23.1255 99.2199 22.65C99.6418 22.1565 100.182 21.7781 100.79 21.55C101.114 21.4427 101.45 21.3755 101.79 21.35C102.468 21.288 103.151 21.3768 103.79 21.61C104.195 21.7494 104.564 21.9795 104.867 22.2828C105.17 22.586 105.4 22.9544 105.54 23.36C105.73 23.91 105.89 24.47 106.03 24.9C106.03 24.54 106.03 24.05 106.09 23.56C106.102 23.2103 106.199 22.8689 106.373 22.5655C106.548 22.2622 106.794 22.0062 107.09 21.82C107.602 21.4927 108.202 21.3288 108.81 21.35C109.366 21.3246 109.922 21.3854 110.46 21.53C110.741 21.6139 111.013 21.7279 111.27 21.87C111.333 21.9042 111.403 21.922 111.475 21.922C111.546 21.922 111.617 21.9042 111.68 21.87C112.14 21.6645 112.614 21.494 113.1 21.36C113.466 21.3246 113.834 21.3246 114.2 21.36C114.807 21.3192 115.412 21.4584 115.94 21.76C116.187 21.9012 116.403 22.091 116.575 22.3178C116.747 22.5447 116.871 22.8039 116.94 23.08C117.002 23.3725 117.029 23.6712 117.02 23.97C117.02 25.4 117.02 26.83 117.02 28.26L117.15 28.52Z" fill="#E51A83"/>
<path d="M82.5299 19.9622V25.3522C82.5299 25.6222 82.4499 25.7322 82.1799 25.7722C81.9437 25.7922 81.7062 25.7922 81.4699 25.7722C81.1999 25.7722 81.1699 25.7022 81.1699 25.4222V19.9622H77.0899V20.7922C76.4497 20.4188 75.7413 20.1769 75.0064 20.0807C74.2714 19.9846 73.5247 20.0361 72.8099 20.2322V15.7422H68.5299V15.9022C68.5299 19.1522 68.5299 22.3822 68.5299 25.6222C68.5147 26.439 68.7794 27.2365 69.2799 27.8822C69.7561 28.525 70.3712 29.0522 71.0793 29.4244C71.7874 29.7967 72.5704 30.0044 73.3699 30.0322C74.7622 30.1528 76.1476 29.7339 77.2399 28.8622C77.4799 28.6722 77.6899 28.4522 77.9199 28.2522C78.41 28.8618 79.0417 29.3424 79.7599 29.6522C79.7599 29.7422 79.7599 29.8022 79.6899 29.8722C79.5302 30.343 79.5309 30.8535 79.6919 31.3239C79.8529 31.7942 80.1652 32.198 80.5799 32.4722C80.8741 32.6226 81.1781 32.7528 81.4899 32.8622H82.2699L82.3799 32.8122C82.7872 32.7262 83.1622 32.528 83.4627 32.2399C83.7631 31.9519 83.9769 31.5855 84.0799 31.1822C84.2248 30.6542 84.1824 30.0924 83.9599 29.5922L84.1599 29.5022C84.9016 29.1965 85.531 28.6695 85.9623 27.9931C86.3936 27.3166 86.6058 26.5236 86.5699 25.7222C86.5699 23.9022 86.5699 22.0822 86.5699 20.2622V20.0122L82.5299 19.9622ZM77.4599 26.2622C77.2863 26.7259 77.0192 27.149 76.6751 27.5052C76.3311 27.8613 75.9174 28.1428 75.4599 28.3322C74.9954 28.531 74.4952 28.6331 73.9899 28.6322C73.407 28.6718 72.822 28.5936 72.2699 28.4022C71.6055 28.1518 71.0143 27.7393 70.5499 27.2022C70.1916 26.8 69.9924 26.2808 69.9899 25.7422C69.9899 24.3922 69.9899 23.0522 69.9899 21.7422V17.5322C69.9899 17.2122 70.0599 17.1222 70.3799 17.1222H71.0499C71.3499 17.1222 71.4399 17.2222 71.4399 17.5122V24.4122C71.4399 24.7022 71.4399 24.9922 71.4399 25.2822V25.6522C71.493 25.9828 71.6344 26.293 71.8491 26.55C72.0638 26.807 72.344 27.0012 72.6599 27.1122C73.1986 27.3298 73.7876 27.3922 74.3599 27.2922C74.798 27.2442 75.2101 27.0602 75.5383 26.7661C75.8665 26.472 76.0944 26.0824 76.1899 25.6522C76.4048 25.0371 76.4048 24.3673 76.1899 23.7522C76.1107 23.4861 75.9749 23.2403 75.792 23.0315C75.6091 22.8227 75.3832 22.6558 75.1299 22.5422C74.8209 22.4333 74.4832 22.4378 74.1772 22.5551C73.8712 22.6723 73.617 22.8946 73.4599 23.1822C73.4545 23.2119 73.4545 23.2424 73.4599 23.2722C73.4599 23.4122 73.4599 23.5622 73.4599 23.7222C73.6299 23.7222 73.8199 23.7222 73.9399 23.6622C74.1069 23.5677 74.2912 23.5074 74.4818 23.4851C74.6724 23.4628 74.8656 23.4788 75.0499 23.5322C75.2976 23.6064 75.5127 23.7627 75.6599 23.9753C75.8071 24.1879 75.8776 24.4442 75.8599 24.7022C75.9089 25.0225 75.8601 25.3501 75.7199 25.6422C75.4597 26.0459 75.0728 26.3519 74.6199 26.5122C74.0656 26.6219 73.4904 26.5151 73.0124 26.2138C72.5344 25.9125 72.19 25.4396 72.0499 24.8922C71.9927 24.5082 71.966 24.1203 71.9699 23.7322C71.9399 23.389 71.9945 23.0437 72.1287 22.7265C72.2629 22.4092 72.4728 22.1297 72.7399 21.9122C73.0887 21.5945 73.5385 21.4103 74.0099 21.3922C74.5671 21.3445 75.1282 21.4091 75.6599 21.5822C76.047 21.6984 76.4058 21.8934 76.7139 22.155C77.0219 22.4166 77.2725 22.7391 77.4499 23.1022C77.6686 23.5578 77.7814 24.0569 77.7799 24.5622C77.7863 25.1444 77.6775 25.7221 77.4599 26.2622V26.2622ZM81.8999 31.4122C81.782 31.4191 81.6639 31.4016 81.5531 31.3608C81.4422 31.32 81.3409 31.2569 81.2555 31.1753C81.1702 31.0936 81.1025 30.9953 81.0568 30.8864C81.0111 30.7775 80.9883 30.6603 80.9899 30.5422C81.0034 30.3023 81.1028 30.0753 81.2699 29.9027C81.437 29.7301 81.6606 29.6234 81.8999 29.6022C82.1378 29.6206 82.3613 29.7234 82.53 29.8921C82.6987 30.0608 82.8015 30.2843 82.8199 30.5222C82.7948 30.7547 82.6891 30.9711 82.521 31.1337C82.3529 31.2963 82.1331 31.3948 81.8999 31.4122V31.4122ZM85.2499 25.8622C85.2416 26.2607 85.1361 26.6512 84.9427 26.9997C84.7492 27.3482 84.4737 27.6443 84.1399 27.8622C83.5068 28.3269 82.7347 28.5631 81.9499 28.5322C81.4081 28.5631 80.8654 28.4918 80.3499 28.3222C79.6074 28.0342 79.0005 27.4773 78.6499 26.7622C78.552 26.5378 78.4977 26.2969 78.4899 26.0522C78.4899 25.9422 78.4899 25.8322 78.4899 25.7322C78.4899 25.6322 78.4899 25.3322 78.4899 25.1222V21.6522C78.4899 21.3722 78.4899 21.3622 78.7799 21.3622C79.0699 21.3622 79.2899 21.3622 79.5499 21.3622C79.8099 21.3622 79.7899 21.4122 79.7899 21.6022C79.7899 22.9122 79.7899 24.2122 79.7899 25.5122C79.7473 25.8457 79.8244 26.1836 80.0075 26.4656C80.1906 26.7476 80.4679 26.9554 80.7899 27.0522C81.1443 27.1916 81.5239 27.2556 81.9044 27.2401C82.2849 27.2246 82.658 27.13 82.9999 26.9622C83.2623 26.844 83.484 26.6509 83.637 26.4072C83.79 26.1634 83.8676 25.8799 83.8599 25.5922C83.8599 24.2722 83.8599 22.9522 83.8599 21.5922C83.8599 21.3522 83.9199 21.2922 84.1399 21.3122C84.4362 21.3322 84.7336 21.3322 85.0299 21.3122C85.2099 21.3122 85.2499 21.3722 85.2499 21.5322C85.2499 22.2822 85.2499 23.0322 85.2499 23.7722C85.2499 24.5122 85.2799 25.1722 85.2499 25.8622V25.8622Z" fill="#E51A83"/>
<path d="M66.98 24.179C67.11 24.089 67.12 24.0091 66.98 23.8791C66.84 23.7491 66.67 23.389 66.51 23.149C66.0621 22.408 65.5357 21.7174 64.94 21.0891L64.62 20.799C64.9207 20.519 65.116 20.1441 65.173 19.7372C65.23 19.3302 65.1452 18.916 64.9329 18.5642C64.7206 18.2124 64.3938 17.9443 64.0072 17.8049C63.6206 17.6656 63.1979 17.6635 62.81 17.799C61.73 18.219 60.6199 18.599 59.5299 19.009C59.3045 19.0823 59.096 19.1999 58.9167 19.3549C58.7373 19.5098 58.5907 19.699 58.4854 19.9114C58.3802 20.1238 58.3184 20.355 58.3037 20.5916C58.289 20.8282 58.3218 21.0653 58.4 21.2891C58.4167 21.3286 58.4254 21.3711 58.4254 21.4141C58.4254 21.457 58.4167 21.4995 58.4 21.5391C58.3376 21.6285 58.2636 21.7092 58.1799 21.7791C57.5179 21.053 56.6665 20.5261 55.7213 20.2575C54.7762 19.989 53.7748 19.9895 52.83 20.259V15.7891H48.59V16.109C48.59 19.289 48.59 22.469 48.59 25.649C48.5707 26.5494 48.884 27.4252 49.4699 28.109C50.1572 28.9316 51.0669 29.5387 52.0901 29.8579C53.1134 30.1771 54.2069 30.1949 55.24 29.9091C56.3756 29.6647 57.3884 29.0272 58.0999 28.109C58.1669 28.1792 58.2303 28.2526 58.2899 28.329L58.4699 28.519C59.0129 29.1196 59.7047 29.5662 60.4755 29.8138C61.2463 30.0614 62.0688 30.1011 62.8599 29.929C64.0965 29.6569 65.2662 29.1401 66.3 28.4091C66.3326 28.3827 66.3586 28.349 66.3759 28.3109C66.3933 28.2727 66.4015 28.231 66.4 28.1891C66.4 27.7891 66.3 27.3791 66.24 26.9691C66.17 26.3591 66.09 25.749 66.02 25.149C66.0194 25.1019 66.0289 25.0553 66.0479 25.0121C66.0668 24.969 66.0948 24.9305 66.13 24.899C66.4 24.649 66.69 24.389 66.98 24.179ZM57.6799 24.5591C57.6799 24.9891 57.68 25.429 57.59 25.859C57.5039 26.38 57.2595 26.8619 56.8899 27.239C56.6619 27.5003 56.4181 27.7475 56.16 27.979C55.9342 28.137 55.6888 28.2647 55.4299 28.359C55.2043 28.448 54.9696 28.5117 54.73 28.549C54.46 28.549 54.18 28.599 53.9 28.619C53.0103 28.6846 52.1249 28.4447 51.3899 27.9391C50.7107 27.5142 50.2149 26.8508 49.9999 26.079C49.9951 26.0526 49.9951 26.0255 49.9999 25.9991C49.9999 25.5591 49.94 25.129 49.94 24.699V17.0391H51.4999V25.8491C51.4999 25.8491 51.4999 25.8491 51.4999 25.9091C51.6476 26.256 51.8902 26.5541 52.2 26.769C52.5643 27.0095 52.975 27.1711 53.4055 27.2435C53.8361 27.3158 54.277 27.2973 54.7 27.1891C54.9413 27.1475 55.1719 27.058 55.378 26.9257C55.5842 26.7935 55.7616 26.6212 55.9 26.419C56.1663 26.0821 56.317 25.6683 56.33 25.239C56.33 24.9324 56.33 24.6224 56.33 24.3091C56.3126 23.9755 56.2121 23.6515 56.0374 23.3668C55.8627 23.0821 55.6195 22.8456 55.33 22.679C55.2459 22.6383 55.1534 22.6177 55.06 22.619C54.92 22.619 54.77 22.619 54.62 22.619C54.04 22.529 53.72 22.8991 53.44 23.3091C53.3943 23.374 53.3667 23.4499 53.3599 23.5291C53.3599 23.6291 53.36 23.759 53.44 23.799C53.52 23.839 53.6299 23.799 53.7199 23.799C54.0099 23.719 54.2999 23.5991 54.5999 23.5391C54.7574 23.5363 54.9137 23.5655 55.0595 23.6251C55.2053 23.6847 55.3374 23.7733 55.4478 23.8855C55.5582 23.9978 55.6445 24.1314 55.7017 24.2781C55.7588 24.4248 55.7854 24.5817 55.7799 24.739C55.8332 25.0789 55.7844 25.4269 55.6399 25.739C55.4325 26.0835 55.1306 26.3612 54.77 26.5391C54.4228 26.6904 54.0373 26.7302 53.6666 26.6532C53.2958 26.5762 52.9581 26.3861 52.7 26.109C52.2789 25.765 52.0009 25.2767 51.92 24.739C51.802 24.2844 51.8017 23.8073 51.9189 23.3524C52.0361 22.8976 52.267 22.4801 52.59 22.139C52.91 21.8697 53.2713 21.6536 53.66 21.4991H53.76C54.4799 21.4488 55.2023 21.551 55.88 21.799C56.5381 22.0836 57.0758 22.5895 57.4 23.229C57.61 23.6395 57.7067 24.0987 57.6799 24.5591V24.5591ZM59.9999 20.2891L61.4999 19.729L63.23 19.0891C63.3372 19.0497 63.4476 19.0196 63.56 18.9991C63.6489 18.9913 63.7377 19.0151 63.8109 19.0663C63.884 19.1175 63.9368 19.1928 63.9599 19.2791C63.9718 19.3316 63.9731 19.3859 63.9639 19.439C63.9548 19.492 63.9352 19.5428 63.9064 19.5883C63.8776 19.6338 63.8402 19.6731 63.7962 19.7042C63.7522 19.7352 63.7025 19.7572 63.65 19.769L62.12 20.3391C61.56 20.5491 61 20.7691 60.42 20.9691C60.2958 21.0046 60.1641 21.0046 60.0399 20.9691C59.9653 20.9623 59.8954 20.9296 59.8424 20.8766C59.7894 20.8236 59.7567 20.7537 59.7499 20.679C59.741 20.5953 59.7609 20.511 59.8064 20.4401C59.8518 20.3692 59.9201 20.3159 59.9999 20.2891V20.2891ZM61.17 26.9691C61.3471 27.0575 61.5355 27.1215 61.73 27.1591C61.83 27.1591 61.94 27.1591 62.05 27.1591C62.6965 27.1736 63.3296 26.9731 63.8499 26.5891C64.1399 26.4191 64.4099 26.2191 64.7099 26.0291C64.7099 26.2891 64.7899 26.529 64.8199 26.769C64.8499 27.009 64.8199 27.079 64.8899 27.239C64.9071 27.2849 64.9148 27.3338 64.9124 27.3828C64.9101 27.4317 64.8977 27.4796 64.8762 27.5236C64.8547 27.5676 64.8244 27.6067 64.7872 27.6386C64.75 27.6705 64.7067 27.6945 64.66 27.709C64.08 27.969 63.49 28.239 62.91 28.479C62.7706 28.5225 62.6259 28.5461 62.48 28.549C62.17 28.549 61.8599 28.549 61.5399 28.549C60.9021 28.5447 60.2915 28.2897 59.84 27.8391C59.7308 27.7183 59.6139 27.6047 59.49 27.4991C59 27.073 58.6512 26.508 58.49 25.8791C58.3472 25.4159 58.3072 24.9272 58.3729 24.4471C58.4385 23.9669 58.6081 23.5069 58.87 23.0991C59.2616 22.4866 59.8062 21.9868 60.45 21.649C60.8293 21.4571 61.2452 21.3481 61.67 21.329C62.3098 21.2643 62.9543 21.3932 63.52 21.699C63.6638 21.7851 63.8008 21.8821 63.9299 21.989C64.4651 22.509 64.9291 23.0974 65.31 23.739C64.4 24.359 63.54 24.9591 62.67 25.5691L61.16 26.649C60.97 26.779 60.96 26.8591 61.17 26.9691Z" fill="#E51A83"/>
<path d="M60.66 23.3608C60.4003 23.5983 60.2211 23.911 60.1476 24.2552C60.0741 24.5994 60.1099 24.9579 60.25 25.2808L63.25 23.3408C62.8796 23.0508 62.4219 22.8949 61.9515 22.8985C61.4811 22.9021 61.0259 23.0651 60.66 23.3608V23.3608Z" fill="#E51A83"/>
</g>
<defs>
<clipPath id="clip0_609_384">
<rect width="118.51" height="40.74" fill="white" transform="translate(0 0.5)"/>
</clipPath>
</defs>
</svg>
