<svg width="16" height="20" viewBox="0 0 16 20" fill="none" xmlns="http://www.w3.org/2000/svg">
<path fill-rule="evenodd" clip-rule="evenodd" d="M0 0.526316C0 0.235639 0.235639 0 0.526316 0H15.2632C15.5538 0 15.7895 0.235639 15.7895 0.526316V19.4737C15.7895 19.6792 15.6698 19.866 15.4831 19.9518C15.2963 20.0377 15.0767 20.007 14.9206 19.8733L13.8346 18.9424C13.2433 18.4356 12.3707 18.4356 11.7794 18.9424L10.6934 19.8733C10.4963 20.0422 10.2055 20.0422 10.0084 19.8733L8.9223 18.9424C8.331 18.4356 7.45847 18.4356 6.86717 18.9424L5.78112 19.8733C5.58402 20.0422 5.29317 20.0422 5.09607 19.8733L4.01002 18.9424C3.41872 18.4356 2.54619 18.4356 1.95489 18.9424L0.868837 19.8733C0.712778 20.007 0.493128 20.0377 0.306391 19.9518C0.119654 19.866 0 19.6792 0 19.4737V0.526316ZM1.05263 1.05263V18.3293L1.26985 18.1432C2.25535 17.2985 3.70956 17.2985 4.69506 18.1432L5.43859 18.7805L6.18213 18.1432C7.16762 17.2985 8.62184 17.2985 9.60734 18.1432L10.3509 18.7805L11.0944 18.1432C12.0799 17.2985 13.5341 17.2985 14.5196 18.1432L14.7368 18.3293V1.05263H1.05263Z" fill="#E51A83"/>
<path fill-rule="evenodd" clip-rule="evenodd" d="M4.21057 4.73684C4.21057 4.44617 4.44621 4.21053 4.73689 4.21053L11.0527 4.21053C11.3433 4.21053 11.579 4.44617 11.579 4.73684C11.579 5.02752 11.3433 5.26316 11.0527 5.26316L4.73689 5.26316C4.44621 5.26316 4.21057 5.02752 4.21057 4.73684Z" fill="#E51A83"/>
<path fill-rule="evenodd" clip-rule="evenodd" d="M4.21057 8.94737C4.21057 8.65669 4.44621 8.42105 4.73689 8.42105L11.0527 8.42105C11.3433 8.42105 11.579 8.65669 11.579 8.94737C11.579 9.23804 11.3433 9.47368 11.0527 9.47368L4.73689 9.47368C4.44621 9.47368 4.21057 9.23804 4.21057 8.94737Z" fill="#E51A83"/>
<path fill-rule="evenodd" clip-rule="evenodd" d="M6.3158 13.1579C6.3158 12.8672 6.55144 12.6316 6.84211 12.6316L11.0526 12.6316C11.3433 12.6316 11.579 12.8672 11.579 13.1579C11.579 13.4486 11.3433 13.6842 11.0526 13.6842L6.84211 13.6842C6.55144 13.6842 6.3158 13.4486 6.3158 13.1579Z" fill="#E51A83"/>
</svg>
