<svg width="53" height="16" viewBox="0 0 53 16" fill="none" xmlns="http://www.w3.org/2000/svg">
<path d="M6.58935 0.668091H0.684071L0.623657 0.954905C5.23014 2.13287 8.28093 4.97231 9.53436 8.38517L8.25062 1.86131C8.03927 0.954704 7.38978 0.697997 6.58935 0.668091Z" fill="#FAA61A"/>
<path d="M18.5961 0.668091L15.0016 10.3477L14.6088 8.38457C13.9443 6.11936 11.8601 3.65826 9.5343 2.43454L12.8267 14.848H16.7081L22.4773 0.668091H18.5961Z" fill="#00579F"/>
<path d="M26.1477 14.8631H22.4773L24.773 0.668091H28.4432L26.1477 14.8631Z" fill="#00579F"/>
<path d="M39.4535 1.27243C38.7295 0.985212 37.5813 0.668091 36.1614 0.668091C32.5368 0.668091 29.9844 2.60092 29.9688 5.36429C29.9386 7.4031 31.7962 8.5355 33.1855 9.21531C34.6055 9.90996 35.0883 10.3634 35.0883 10.9826C35.0738 11.9335 33.9408 12.3719 32.8841 12.3719C31.4187 12.3719 30.6335 12.1459 29.4403 11.6168L28.957 11.39L28.4434 14.5765C29.3042 14.9686 30.8902 15.3167 32.5368 15.3319C36.388 15.3319 38.8953 13.429 38.925 10.4842C38.9397 8.86828 37.9588 7.6301 35.8441 6.61833C34.5604 5.96883 33.7742 5.53088 33.7742 4.86633C33.7893 4.2622 34.4392 3.64341 35.8883 3.64341C37.0815 3.6131 37.9582 3.89992 38.6224 4.18693L38.9543 4.33766L39.4535 1.27243Z" fill="#00579F"/>
<path d="M45.132 9.83429C45.4343 9.01881 46.5974 5.86265 46.5974 5.86265C46.5822 5.89296 46.8991 5.03212 47.0803 4.50365L47.3368 5.72677C47.3368 5.72677 48.0319 9.12459 48.1828 9.83429C47.6092 9.83429 45.857 9.83429 45.132 9.83429ZM49.6627 0.668091H46.8236C45.9481 0.668091 45.283 0.924598 44.9052 1.84585L39.4534 14.8629H43.3046C43.3046 14.8629 43.9386 13.1109 44.0749 12.7335C44.4974 12.7335 48.2438 12.7335 48.7874 12.7335C48.8927 13.2319 49.2253 14.8629 49.2253 14.8629H52.6237L49.6627 0.668091Z" fill="#00579F"/>
</svg>
