<svg width="31" height="20" viewBox="0 0 31 20" fill="none" xmlns="http://www.w3.org/2000/svg">
<g clip-path="url(#clip0_618_384)">
<path d="M27.375 0H3.62497C1.9025 0 0.5 1.4025 0.5 3.12503V16.875C0.5 18.5975 1.9025 20 3.62497 20H27.3749C29.0974 20 30.4999 18.5975 30.4999 16.875V3.12503C30.4999 1.4025 29.0974 0 27.375 0ZM29.25 16.875C29.25 17.9087 28.4087 18.75 27.375 18.75H3.62497C2.59121 18.75 1.74998 17.9087 1.74998 16.875V3.12503C1.74998 2.09127 2.59121 1.25004 3.62497 1.25004H27.3749C28.4087 1.25004 29.2499 2.09127 29.2499 3.12503L29.25 16.875Z" fill="#00A76F"/>
<path d="M29.8749 3.75H1.12502C0.780019 3.75 0.5 4.03002 0.5 4.37502V8.12501C0.5 8.47001 0.780019 8.75003 1.12502 8.75003H29.875C30.22 8.75003 30.5 8.47001 30.5 8.12501V4.37502C30.4999 4.03002 30.2199 3.75 29.8749 3.75ZM29.25 7.49999H1.74998V4.99998H29.2499L29.25 7.49999Z" fill="#00A76F"/>
<path d="M12.375 12.5H4.87502C4.53002 12.5 4.25 12.78 4.25 13.125C4.25 13.47 4.53002 13.75 4.87502 13.75H12.375C12.72 13.75 13 13.47 13 13.125C13 12.78 12.72 12.5 12.375 12.5Z" fill="#00A76F"/>
<path d="M12.375 15H4.87502C4.53002 15 4.25 15.28 4.25 15.625C4.25 15.97 4.53002 16.25 4.87502 16.25H12.375C12.72 16.25 13 15.97 13 15.625C13 15.28 12.72 15 12.375 15Z" fill="#00A76F"/>
<path d="M24.8747 11.25H23.6248C22.591 11.25 21.7498 12.0912 21.7498 13.125V14.375C21.7498 15.4087 22.591 16.25 23.6248 16.25H24.8747C25.9085 16.25 26.7497 15.4087 26.7497 14.375V13.125C26.7497 12.0913 25.9085 11.25 24.8747 11.25ZM25.4997 14.375C25.4997 14.72 25.2197 15.0001 24.8747 15.0001H23.6248C23.2798 15.0001 22.9997 14.72 22.9997 14.375V13.1251C22.9997 12.7801 23.2798 12.5 23.6248 12.5H24.8747C25.2197 12.5 25.4997 12.7801 25.4997 13.1251V14.375Z" fill="#00A76F"/>
</g>
<defs>
<clipPath id="clip0_618_384">
<rect width="31" height="20" fill="white"/>
</clipPath>
</defs>
</svg>
