<svg width="46" height="20" viewBox="0 0 46 20" fill="none" xmlns="http://www.w3.org/2000/svg">
<path d="M14.4057 0.00431367L0.758249 1.82318C0.758249 1.82318 0.154785 1.89607 0.154785 2.61989V15.5808C0.154785 15.5808 0.234456 17.1064 1.97196 17.1064H17.4383C17.4383 17.1064 18.8181 16.7674 18.8181 15.3977V4.69133C18.8181 4.69133 18.8452 3.17419 17.0247 3.17419H2.10757C1.93209 3.13681 1.77074 3.05062 1.64209 2.92557C1.51343 2.80052 1.42271 2.64167 1.38036 2.46733C1.33629 2.22662 1.43291 2.20289 1.68718 2.20289H15.3838V0.728132C15.3838 0.728132 15.3363 -0.0651864 14.4057 0.00431367Z" fill="#ED4C2F"/>
<path d="M9.76273 14.8993C8.63208 14.8993 7.79808 14.4383 6.56912 13.2212C6.51703 13.1696 6.4756 13.1083 6.44719 13.0408C6.41879 12.9733 6.40397 12.9008 6.40357 12.8275C6.40278 12.6795 6.4608 12.5373 6.56488 12.4321C6.66895 12.3269 6.81056 12.2673 6.95854 12.2665C7.10652 12.2657 7.24876 12.3238 7.35396 12.4278C8.64903 13.7077 9.24911 14.0263 10.2831 13.745C10.8832 13.5754 11.4239 12.816 11.4545 11.938C11.4799 11.2599 10.9968 10.809 10.0238 10.6141C8.27441 10.2649 7.24208 9.59699 6.9556 8.62568C6.72507 7.84423 7.0268 6.97294 7.78621 6.23386L7.81673 6.20674C9.44743 4.85064 11.3409 5.85924 12.1139 6.58645C12.2197 6.6881 12.2812 6.82736 12.285 6.97405C12.2889 7.12073 12.2347 7.26302 12.1344 7.37007C12.034 7.47712 11.8955 7.5403 11.7489 7.54593C11.6023 7.55155 11.4593 7.49916 11.3511 7.40011C11.2849 7.33908 9.82545 6.00841 8.54902 7.04922C8.11507 7.47978 7.92013 7.94933 8.02692 8.31039C8.18118 8.83588 8.96771 9.26474 10.2424 9.52071C12.4071 9.95296 12.5919 11.3853 12.5699 11.9786C12.5241 13.2737 11.4409 14.7247 10.4238 14.8603C10.2045 14.8868 9.98368 14.8998 9.76273 14.8993Z" fill="white"/>
<path d="M24.5578 3.09799C24.3108 2.94779 24.0437 2.83363 23.7645 2.75896C23.1898 2.58945 22.7728 2.38264 22.5779 2.11312C22.4084 1.87919 22.4084 1.57407 22.6118 1.18589C22.7338 0.95196 23.0237 0.802789 23.4 0.773972C23.8726 0.755573 24.3412 0.865713 24.7561 1.09266C24.7858 1.10757 24.8182 1.11649 24.8514 1.11889C24.8845 1.1213 24.9179 1.11715 24.9494 1.10668C24.981 1.09622 25.0102 1.07963 25.0353 1.05789C25.0605 1.03614 25.0811 1.00965 25.096 0.97993C25.1109 0.950212 25.1198 0.917848 25.1222 0.884684C25.1246 0.851521 25.1205 0.818208 25.11 0.786647C25.0996 0.755087 25.083 0.725899 25.0612 0.700747C25.0395 0.675595 25.013 0.654972 24.9833 0.640057C24.4839 0.368972 23.9202 0.238885 23.3526 0.26374C22.8 0.306118 22.3677 0.546825 22.1558 0.941789C21.8371 1.53 21.8575 2.01311 22.1558 2.41655C22.4321 2.77761 22.9356 3.05391 23.6221 3.24546C23.8595 3.30993 24.0874 3.4051 24.3001 3.52855C24.5326 3.65356 24.7191 3.84954 24.8324 4.08794C24.9144 4.28114 24.927 4.49676 24.868 4.69818C24.8349 4.8027 24.7894 4.90287 24.7324 4.99652C24.7324 5.01009 24.7188 5.02365 24.7053 5.04568C24.6001 5.19609 24.4584 5.3173 24.2936 5.39795C24.1287 5.4786 23.9461 5.51604 23.7628 5.50676C23.3153 5.50676 22.7694 5.33724 22.1897 4.97449C22.1101 4.92914 22.0332 4.87934 21.9592 4.82532C21.9028 4.78755 21.8336 4.77375 21.767 4.78694C21.7004 4.80013 21.6418 4.83924 21.604 4.89566C21.5663 4.95209 21.5525 5.0212 21.5657 5.0878C21.5789 5.1544 21.618 5.21303 21.6744 5.25079C21.7676 5.31521 21.8439 5.36437 21.9168 5.42031C22.583 5.82544 23.2136 6.02377 23.7509 6.02377C24.0178 6.03668 24.2836 5.98116 24.523 5.86249C24.7624 5.74382 24.9675 5.56594 25.1189 5.34572C25.131 5.32138 25.1452 5.29813 25.1613 5.27622C25.2429 5.14054 25.3062 4.99461 25.3494 4.84227C25.4447 4.52932 25.4249 4.19259 25.2935 3.893C25.1373 3.55768 24.88 3.27967 24.5578 3.09799Z" fill="#ED4C2F"/>
<path d="M28.4634 2.53853C28.1731 2.46643 27.8686 2.47641 27.5836 2.56735C27.2587 2.66807 26.9593 2.83745 26.7056 3.06402V0.504387C26.6983 0.44201 26.6685 0.38446 26.6216 0.342687C26.5747 0.300914 26.5141 0.277832 26.4513 0.277832C26.3885 0.277832 26.3279 0.300914 26.281 0.342687C26.2341 0.38446 26.2042 0.44201 26.197 0.504387V5.76944C26.2042 5.83182 26.2341 5.88937 26.281 5.93114C26.3279 5.97291 26.3885 5.99599 26.4513 5.99599C26.5141 5.99599 26.5747 5.97291 26.6216 5.93114C26.6685 5.88937 26.6983 5.83182 26.7056 5.76944V3.80818L26.7191 3.79462C26.979 3.45493 27.3325 3.19862 27.7362 3.05724C27.9308 2.99354 28.1395 2.98649 28.338 3.0369C28.4974 3.07734 28.6388 3.1698 28.7397 3.29964C28.8494 3.47004 28.9039 3.67012 28.8957 3.8726V5.75757C28.8915 5.79343 28.895 5.82976 28.9059 5.86417C28.9168 5.89859 28.9348 5.93031 28.9588 5.95726C28.9828 5.98421 29.0123 6.00578 29.0452 6.02054C29.0781 6.03531 29.1138 6.04295 29.1499 6.04295C29.186 6.04295 29.2217 6.03531 29.2546 6.02054C29.2876 6.00578 29.317 5.98421 29.341 5.95726C29.365 5.93031 29.3831 5.89859 29.394 5.86417C29.4049 5.82976 29.4083 5.79343 29.4042 5.75757V3.87768C29.4125 3.56969 29.3229 3.267 29.1482 3.01317C28.9822 2.78004 28.74 2.61217 28.4634 2.53853Z" fill="#ED4C2F"/>
<path d="M31.9061 2.4894C31.4977 2.49129 31.1026 2.63479 30.7882 2.89542C30.4737 3.15605 30.2594 3.51768 30.1818 3.91864C30.1042 4.31961 30.1681 4.73508 30.3625 5.09422C30.557 5.45336 30.87 5.73393 31.2482 5.88809C31.6264 6.04225 32.0464 6.06045 32.4365 5.93959C32.8266 5.81873 33.1627 5.56629 33.3875 5.22532C33.6123 4.88435 33.7119 4.47596 33.6693 4.06978C33.6266 3.6636 33.4444 3.28479 33.1537 2.99793C32.8214 2.67024 32.3728 2.48742 31.9061 2.4894ZM32.8079 5.14735C32.5694 5.38166 32.2489 5.51363 31.9146 5.51519C31.6233 5.51431 31.3413 5.4125 31.1167 5.22708C30.892 5.04167 30.7386 4.78411 30.6825 4.49828C30.6264 4.21245 30.6711 3.916 30.809 3.65943C30.9469 3.40286 31.1695 3.20202 31.4388 3.09111C31.7082 2.9802 32.0076 2.96608 32.2862 3.05116C32.5648 3.13623 32.8053 3.31524 32.9667 3.5577C33.1282 3.80016 33.2006 4.09108 33.1716 4.38093C33.1427 4.67077 33.0141 4.94162 32.8079 5.14735Z" fill="#ED4C2F"/>
<path d="M36.2083 2.48941C35.7415 2.48687 35.2927 2.66978 34.9607 2.99794C34.9404 3.01485 34.9217 3.03358 34.9048 3.05388V2.7352C34.8975 2.67282 34.8677 2.61527 34.8208 2.5735C34.7739 2.53173 34.7133 2.50864 34.6505 2.50864C34.5877 2.50864 34.5271 2.53173 34.4802 2.5735C34.4333 2.61527 34.4034 2.67282 34.3962 2.7352V7.75276C34.3921 7.78862 34.3956 7.82495 34.4064 7.85936C34.4173 7.89378 34.4354 7.9255 34.4594 7.95245C34.4834 7.9794 34.5128 8.00097 34.5458 8.01573C34.5787 8.0305 34.6144 8.03814 34.6505 8.03814C34.6866 8.03814 34.7223 8.0305 34.7552 8.01573C34.7882 8.00097 34.8176 7.9794 34.8416 7.95245C34.8656 7.9255 34.8837 7.89378 34.8945 7.85936C34.9054 7.82495 34.9089 7.78862 34.9048 7.75276V5.44401C34.9251 5.46153 34.9438 5.48082 34.9607 5.50164C35.1659 5.70688 35.4185 5.85835 35.6962 5.94262C35.974 6.02689 36.2682 6.04137 36.5528 5.98476C36.8375 5.92816 37.1038 5.80223 37.3281 5.61812C37.5524 5.43401 37.7279 5.19741 37.839 4.92928C37.95 4.66115 37.9932 4.36977 37.9648 4.08095C37.9363 3.79213 37.837 3.51479 37.6758 3.2735C37.5145 3.03221 37.2962 2.83442 37.0403 2.69765C36.7843 2.56088 36.4985 2.48935 36.2083 2.48941ZM37.0949 5.14736C36.8573 5.38317 36.5362 5.5155 36.2015 5.5155C35.8668 5.5155 35.5457 5.38317 35.3082 5.14736C35.1323 4.97081 35.0126 4.74608 34.9643 4.50156C34.916 4.25703 34.9412 4.00368 35.0368 3.77348C35.1324 3.54329 35.294 3.34658 35.5013 3.2082C35.7086 3.06981 35.9523 2.99595 36.2015 2.99595C36.4508 2.99595 36.6944 3.06981 36.9017 3.2082C37.1091 3.34658 37.2707 3.54329 37.3663 3.77348C37.4619 4.00368 37.4871 4.25703 37.4388 4.50156C37.3905 4.74608 37.2708 4.97081 37.0949 5.14736Z" fill="#ED4C2F"/>
<path d="M41.4886 2.96064C41.3428 2.81138 41.1685 2.69303 40.9759 2.61265C40.7834 2.53226 40.5767 2.4915 40.3681 2.49279C40.1594 2.48913 39.9522 2.52882 39.7596 2.60935C39.567 2.68989 39.3933 2.8095 39.2493 2.96064C38.639 3.62004 38.6458 4.3286 38.8865 5.04395C38.9944 5.34903 39.2055 5.60684 39.4832 5.77285C39.7647 5.94987 40.0935 6.0368 40.4257 6.02203C40.8312 6.00608 41.2301 5.91468 41.6021 5.75251C41.6616 5.72453 41.7079 5.6746 41.7314 5.6132C41.7549 5.5518 41.7536 5.4837 41.728 5.42318C41.7023 5.36267 41.6542 5.31443 41.5938 5.28861C41.5334 5.26278 41.4653 5.26136 41.4038 5.28465C41.0935 5.42669 40.7583 5.50618 40.4172 5.51858C40.1841 5.52693 39.9534 5.46809 39.7527 5.34907C39.5731 5.22723 39.4343 5.05418 39.3544 4.8524C39.3007 4.70072 39.2626 4.54395 39.2408 4.38454H41.5869C41.7157 4.38454 42.1327 4.41336 41.914 3.70649C41.837 3.42611 41.6907 3.16961 41.4886 2.96064ZM39.2696 3.86753C39.3355 3.66024 39.452 3.47264 39.6087 3.3217C39.7088 3.22145 39.8277 3.14192 39.9586 3.08765C40.0895 3.03339 40.2298 3.00546 40.3715 3.00546C40.5132 3.00546 40.6535 3.03339 40.7843 3.08765C40.9152 3.14192 41.0341 3.22145 41.1343 3.3217C41.286 3.47651 41.4018 3.66288 41.4733 3.86753H39.2696Z" fill="#ED4C2F"/>
<path d="M45.7825 3.69461C45.7037 3.41731 45.5555 3.16469 45.3519 2.96062C45.2066 2.81125 45.0326 2.69281 44.8403 2.61242C44.6481 2.53202 44.4416 2.49132 44.2332 2.49276C44.0242 2.48928 43.8168 2.52905 43.624 2.60956C43.4312 2.69008 43.2571 2.8096 43.1127 2.96062C42.5041 3.62002 42.5109 4.32858 42.7516 5.04392C42.8594 5.34853 43.0698 5.6062 43.3466 5.77283C43.6283 5.94945 43.957 6.03635 44.2891 6.02201C44.6946 6.00606 45.0935 5.91466 45.4655 5.75249C45.4975 5.74036 45.5267 5.7219 45.5514 5.69821C45.5761 5.67452 45.5958 5.64609 45.6092 5.61463C45.6227 5.58316 45.6296 5.5493 45.6297 5.51508C45.6297 5.48086 45.6229 5.44698 45.6095 5.41548C45.5962 5.38397 45.5766 5.35548 45.552 5.33173C45.5273 5.30797 45.4982 5.28942 45.4662 5.2772C45.4342 5.26499 45.4001 5.25935 45.3659 5.26062C45.3317 5.2619 45.2982 5.27007 45.2672 5.28463C44.9575 5.42662 44.6228 5.50612 44.2823 5.51856C44.0486 5.52686 43.8174 5.46803 43.6161 5.34905C43.437 5.22711 43.2988 5.05403 43.2195 4.85238C43.1658 4.7007 43.1277 4.54393 43.1059 4.38452H45.452C45.5842 4.38113 46.0029 4.40995 45.7825 3.69461ZM43.1398 3.86412C43.2056 3.65677 43.3221 3.46914 43.4788 3.31829C43.579 3.21804 43.6979 3.1385 43.8288 3.08424C43.9596 3.02998 44.1 3.00205 44.2416 3.00205C44.3833 3.00205 44.5236 3.02998 44.6545 3.08424C44.7854 3.1385 44.9043 3.21804 45.0044 3.31829C45.1561 3.47317 45.2719 3.65952 45.3435 3.86412H43.1398Z" fill="#ED4C2F"/>
<path d="M25.4019 7.28315H21.7319V17.0979H23.2219V14.1687H25.5612C26.347 14.1763 27.1204 13.9726 27.8005 13.5788C28.6023 13.1042 29.4058 12.2668 29.4058 10.8192C29.4122 10.2754 29.2825 9.73869 29.0285 9.25787C28.7744 8.77705 28.4042 8.36743 27.9513 8.0663C27.2028 7.54821 26.3122 7.27464 25.4019 7.28315ZM25.8697 12.5974H23.2219V8.75113H25.6104C25.6516 8.74855 25.6929 8.74855 25.7341 8.75113C26.0986 8.79181 27.6886 9.06642 27.6886 10.7717C27.6886 12.5974 25.8697 12.5974 25.8697 12.5974Z" fill="#ED4C2F"/>
<path d="M35.3047 10.1225V10.8124C34.7897 10.3944 34.1667 10.1308 33.508 10.0523C32.8492 9.97374 32.1817 10.0835 31.5828 10.3687C30.9839 10.654 30.4781 11.1031 30.1239 11.664C29.7698 12.225 29.5818 12.8748 29.5818 13.5382C29.5818 14.2016 29.7698 14.8514 30.1239 15.4123C30.4781 15.9733 30.9839 16.4224 31.5828 16.7077C32.1817 16.9929 32.8492 17.1026 33.508 17.0241C34.1667 16.9456 34.7897 16.682 35.3047 16.2639V17.0505H36.7931V10.1225H35.3047ZM33.1011 15.7469C32.6656 15.7469 32.2399 15.6179 31.8777 15.3761C31.5155 15.1344 31.233 14.7907 31.066 14.3885C30.899 13.9864 30.8548 13.5437 30.9392 13.1165C31.0235 12.6892 31.2326 12.2966 31.5399 11.988C31.8472 11.6795 32.2391 11.469 32.666 11.383C33.0929 11.297 33.5357 11.3394 33.9385 11.5049C34.3413 11.6704 34.6861 11.9516 34.9293 12.3128C35.1724 12.6741 35.3031 13.0993 35.3047 13.5348C35.3059 13.8253 35.2495 14.1132 35.139 14.3819C35.0284 14.6506 34.8658 14.8947 34.6605 15.1003C34.4552 15.3059 34.2113 15.4689 33.9428 15.5799C33.6743 15.6908 33.3865 15.7476 33.096 15.7469H33.1011Z" fill="#ED4C2F"/>
<path d="M37.4629 10.0276H39.4547L41.7905 14.4993L44.0451 10.0276H45.8453L40.487 20H38.7342L40.7769 16.2978L37.4629 10.0276Z" fill="#ED4C2F"/>
</svg>
