<svg width="78" height="20" viewBox="0 0 78 20" fill="none" xmlns="http://www.w3.org/2000/svg">
<path fill-rule="evenodd" clip-rule="evenodd" d="M66.9101 9.44223H65.0295L65.9415 6.84363L66.9101 9.44223ZM14.9108 6.5149L13.0097 8.41602L12.9149 8.50941L11.8605 9.56518L10.8995 10.5264L10.8059 10.6211H10.8049L9.91385 11.5109V11.5121L9.82034 11.6055C9.55328 11.8727 9.25803 12.0917 8.94428 12.2651C8.78545 12.3526 8.6231 12.4274 8.45698 12.4914C8.0866 12.6342 7.69784 12.7179 7.30656 12.7426C7.06669 12.7587 6.82304 12.7524 6.5843 12.7229C6.06755 12.6611 5.56049 12.4964 5.09786 12.2283C4.89976 12.1139 4.69676 11.9945 4.528 11.8271C4.52686 11.8271 4.52686 11.8271 4.52561 11.8259L0.879664 8.18018C0.819381 8.11347 0.765265 8.04136 0.719832 7.96371C0.604048 7.76788 0.537598 7.54097 0.537598 7.29783C0.537598 7.25957 0.538982 7.22144 0.542506 7.18443C0.547414 7.12805 0.556098 7.07343 0.567173 7.0207L0.589197 6.93336C0.638405 6.77088 0.718447 6.61734 0.829323 6.47916C0.858773 6.44405 0.889481 6.40943 0.922706 6.37483L0.984248 6.31417L4.67197 2.62518H4.67336L6.90786 0.391053C7.40624 -0.107448 8.19999 -0.12985 8.72278 0.326743L14.9108 6.5149ZM57.4939 4.95093L59.2739 4.94426H61.4353C62.6239 4.94426 63.5966 5.91698 63.5966 7.10565V7.37183C63.5966 8.56101 62.6233 9.46702 61.4353 9.50289L60.4492 9.53322C61.2418 9.16875 61.5736 8.24814 61.4747 7.41915C61.3952 6.75326 61.0525 6.11343 60.4813 6.10135L60.1211 6.09342V12.0178C60.1211 12.1331 60.1411 12.1811 60.2018 12.2823C60.2982 12.4435 60.4274 12.6048 60.5602 12.7657C60.5953 12.8075 60.6299 12.8493 60.6645 12.8911H57.599C57.6451 12.8348 57.69 12.7777 57.7331 12.7192C57.8258 12.5921 57.9084 12.458 57.9702 12.3084C58.0102 12.212 58.0296 12.1407 58.0296 12.0383V5.67433C58.0172 5.34271 57.6874 5.15406 57.4939 4.95093ZM72.2145 9.1948L69.4309 5.2039L69.1477 4.94439H71.8918L73.7512 7.96144L73.9009 7.83949L75.0247 6.16881C75.3012 5.75828 75.2637 5.28155 74.87 4.94439H77.4625L74.4655 9.1943L74.4642 12.2778L74.9924 12.9058H71.7716L72.2252 12.2872C72.2255 11.2593 72.1885 10.2197 72.2145 9.1948ZM64.6566 4.94426C64.8786 5.24933 64.9446 5.35668 64.9694 5.62777C64.9864 5.81692 64.9737 5.9249 64.9131 6.10135L62.8427 12.105C62.7456 12.3518 62.5455 12.6245 62.2538 12.8893H64.5134C64.3453 12.7407 64.2386 12.5635 64.1992 12.3526C64.1641 12.1599 64.1652 12.0876 64.2072 11.9023L64.6663 10.4762H67.2958L67.7057 11.5749C67.7488 11.6901 67.7731 11.797 67.784 11.9205C67.8197 12.3308 67.6882 12.6687 67.3625 12.9072H70.9048C70.5573 12.5977 70.2383 12.2736 70.0582 11.8804L67.4723 4.94414H64.6566V4.94426Z" fill="#005AAA"/>
<path fill-rule="evenodd" clip-rule="evenodd" d="M35.512 6.25608L38.4181 4.58955L38.9911 5.64167L36.1902 6.67077L35.512 6.25608ZM36.2545 11.7289V8.3665C36.2545 8.10939 36.2233 7.91469 36.161 7.78192C36.1025 7.65329 36.0012 7.52115 35.857 7.38473V7.33804H37.307C37.5332 7.33804 37.7241 7.32771 37.8802 7.30833C38.0244 7.29323 38.1608 7.24591 38.2894 7.16826H38.3363V11.7757C38.3363 12.041 38.3634 12.2435 38.4181 12.384C38.4724 12.5438 38.5856 12.6861 38.7571 12.8107V12.8575H35.8334V12.8107C36.0168 12.6548 36.1337 12.4989 36.1842 12.3427C36.2311 12.1909 36.2545 11.9863 36.2545 11.7289ZM40.8733 4.90909H43.3482L45.4253 10.8644L47.187 5.93151C47.219 5.73984 47.1912 5.67741 47.1179 5.51242C47.0202 5.31232 46.9159 5.11762 46.8188 4.91752H48.6672C48.5575 5.32025 48.3955 5.76224 48.2561 6.16799L45.8691 13.104C45.2179 12.9741 44.4913 12.7162 43.9298 12.1839C43.507 11.7833 43.3566 11.3278 43.1481 10.7846L41.1523 5.49908C41.0734 5.29055 40.9764 5.10378 40.8733 4.90909ZM30.2788 11.007L28.5302 6.18082C28.4874 6.06743 28.4445 5.95404 28.4017 5.84128C28.3354 5.67754 28.2789 5.54892 28.2322 5.45503C28.162 5.31496 28.049 5.16092 27.8929 4.99291V4.96924H30.6119V5.01656L30.5885 5.09233C30.6197 5.30703 30.6803 5.57082 30.7698 5.88318L32.4783 10.8493L33.9017 6.49508L33.9725 6.28641L34.0457 6.03408C34.0569 5.98311 34.0642 5.94611 34.068 5.92245C34.0718 5.89879 34.0734 5.86368 34.0734 5.81636C34.0734 5.4792 33.8942 5.20509 33.5355 4.99278V4.96912H35.6756V4.99882L32.9217 13.1072L31.992 12.7856C31.832 12.727 31.688 12.6685 31.5592 12.6102C31.4306 12.5516 31.3156 12.4892 31.2143 12.4227C31.0312 12.3018 30.8643 12.1333 30.7144 11.9168C30.5645 11.7003 30.4191 11.3972 30.2788 11.007ZM50.754 7.69999V11.9553C50.754 12.1281 50.794 12.1591 50.9001 12.2975L51.3876 12.9329H49.0584C49.19 12.7327 49.3209 12.5325 49.4519 12.3324C49.5532 12.1671 49.5969 12.111 49.5969 11.9194V5.97418L48.942 4.90921H51.3562L55.2647 9.94318V5.93164C55.2647 5.73996 55.2264 5.67754 55.1252 5.51255C54.9942 5.31244 54.8571 5.11775 54.7261 4.91764H57.053L56.5679 5.5532C56.4618 5.69151 56.4217 5.72234 56.4217 5.89526V13.1364C55.5406 13.0203 54.7195 12.8047 53.9893 11.8719L50.754 7.69999ZM4.49142 11.7922C4.503 11.8037 4.51458 11.815 4.52603 11.8261C4.69455 11.9932 4.89893 12.1139 5.09816 12.2284C5.56079 12.4966 6.06785 12.6615 6.5846 12.7231C6.82322 12.7526 7.06687 12.7587 7.30687 12.7426C7.69814 12.7181 8.08702 12.6343 8.45728 12.4917C8.62341 12.4278 8.78588 12.3526 8.94446 12.2654C9.25833 12.0917 9.55346 11.8727 9.82064 11.6058L9.91415 11.5123V11.5112L10.8051 10.6215H10.8062L11.2566 10.1697L12.3113 9.11545L12.9153 8.5096L13.0101 8.41621L16.8406 4.58602L18.4205 2.87405L18.5154 2.78067C18.9977 2.29853 19.7803 2.29853 20.2625 2.78067L21.1276 3.6454H21.1288L21.157 3.67385C20.7744 3.6556 20.3881 3.79328 20.0989 4.07657L17.1715 6.95595L17.142 6.99169L12.0478 12.0044L12.0404 11.9982L10.1642 13.8416L10.0387 13.9744C9.89099 14.1183 9.58215 14.3906 9.1686 14.586C8.98158 14.6746 8.79092 14.7385 8.60277 14.778C8.49076 14.8001 8.37623 14.8149 8.26435 14.8198H8.17927C7.88163 14.8198 7.58878 14.7534 7.30825 14.6254L6.4259 13.7458L6.06659 13.3851L4.41528 11.7153L4.49142 11.7922ZM25.8136 10.0797L21.5707 14.3864L17.2137 18.8101C17.0746 18.9492 16.9294 19.0745 16.7757 19.1878C16.7707 19.1928 16.7645 19.1976 16.7584 19.2025C16.7375 19.2174 16.7166 19.2333 16.6944 19.2481C16.6919 19.2506 16.6895 19.2516 16.6871 19.2542C16.0299 19.7244 15.224 20 14.3552 20C13.2822 20 12.3076 19.5792 11.5867 18.8938L11.4871 18.8052L10.7375 18.0559L8.63222 15.9494L7.83117 15.1483C7.94557 15.1667 8.06123 15.1752 8.17688 15.1752L8.27417 15.1741C8.40833 15.1691 8.54248 15.1532 8.674 15.1262C8.88933 15.0817 9.10706 15.0079 9.32113 14.9072C9.78137 14.6892 10.1247 14.3879 10.2883 14.2278C10.3524 14.1649 10.4003 14.1122 10.4201 14.0888L12.0394 12.4979L12.0456 12.5052L17.6134 7.0273L17.643 6.99156L20.3477 4.32991C20.7119 3.97388 21.2805 3.92719 21.6938 4.21161L22.3349 4.85258C22.3363 4.85258 22.3363 4.85384 22.3363 4.85384L25.8136 8.33114C25.8443 8.3621 25.8739 8.39419 25.9009 8.42691C26.2947 8.91345 26.2651 9.62968 25.8136 10.0797Z" fill="#ED1C24"/>
<path d="M14.337 7.08861L13.9801 7.44515L13.3539 6.81501C13.2553 6.71558 13.2566 6.5555 13.355 6.45847C13.4548 6.36017 13.6135 6.36018 13.7119 6.45973L14.337 7.08861ZM13.2813 8.14438L12.9244 8.49979L10.9556 6.51611C10.2247 5.7805 9.15785 5.52213 8.16978 5.84179C8.03814 5.88483 7.89555 5.81272 7.85226 5.68108C7.80922 5.54767 7.88183 5.40521 8.01461 5.36204C9.18352 4.98297 10.4486 5.2893 11.3137 6.1607L13.2813 8.14438ZM11.171 10.2545L10.8141 10.6115L8.83667 8.61922C8.73813 8.52093 8.73964 8.36085 8.83781 8.26205C8.93761 8.16376 9.09744 8.16502 9.19472 8.26382L11.171 10.2545ZM12.2255 9.20016L11.8686 9.55669L9.8961 7.56823C9.41509 7.08244 8.62738 7.07942 8.1426 7.56093C7.65782 8.04307 7.65417 8.82965 8.13643 9.31418L9.40741 10.5966C9.50596 10.695 9.50596 10.8549 9.40628 10.9535C9.30774 11.0518 9.14778 11.0506 9.04936 10.9521L7.77738 9.67009C7.10054 8.98721 7.10419 7.88047 7.78719 7.2025C8.47007 6.52517 9.57757 6.52995 10.2543 7.21282L12.2255 9.20016ZM8.95485 12.259C8.95132 12.2615 8.94755 12.2625 8.94377 12.2652C8.78872 12.35 8.63116 12.424 8.46881 12.4868L6.71896 10.7223C5.62392 9.61874 5.46761 7.88978 6.34618 6.60961C6.42484 6.49559 6.58228 6.46589 6.69681 6.54467C6.81247 6.62346 6.84078 6.78115 6.762 6.89643C6.0201 7.97586 6.153 9.435 7.07713 10.3666L8.95485 12.259ZM12.3733 5.46939C12.2748 5.56642 12.1136 5.56403 12.0152 5.46574C10.3736 3.81204 7.69368 3.80172 6.03998 5.44208C4.38742 7.0837 4.37634 9.7636 6.01783 11.4172L7.30241 12.7129C7.31109 12.7215 7.31965 12.7313 7.32456 12.7414C7.31839 12.7414 7.31235 12.7424 7.30618 12.7424C7.07235 12.7585 6.836 12.7522 6.60342 12.7252L5.65966 11.7728C3.82259 9.9223 3.83367 6.9211 5.68433 5.08365C7.53624 3.24671 10.5362 3.25892 12.3733 5.1097L12.3768 5.11335C12.4754 5.21164 12.4728 5.37047 12.3733 5.46939ZM54.7682 15.3113C54.7682 15.4567 54.6542 15.5698 54.5075 15.5698C54.3553 15.5698 54.2358 15.4567 54.2358 15.3113C54.2358 15.1656 54.3552 15.0471 54.5075 15.0471C54.6542 15.047 54.7682 15.1656 54.7682 15.3113ZM45.5935 15.8392C45.4904 15.8392 45.4795 15.8016 45.4631 15.7369C45.4467 15.5862 45.545 15.5212 45.7081 15.3489C45.7512 15.3058 45.7785 15.268 45.7785 15.225C45.7785 15.1331 45.7348 15.0902 45.6802 15.0849C45.6262 15.0795 45.5177 15.0956 45.4412 15.1332C45.3818 15.155 45.3326 15.155 45.2945 15.0739L45.2732 15.0309C45.2405 14.9503 45.2945 14.9229 45.3489 14.8962C45.4793 14.8425 45.566 14.8313 45.6691 14.8313C45.8813 14.8313 46.0554 14.9502 46.0499 15.2251C46.0499 15.4619 45.7346 15.5595 45.7182 15.7371C45.7182 15.7801 45.6752 15.8289 45.6205 15.8394H45.5935V15.8392ZM62.276 15.2626C62.1947 15.1386 62.2166 15.1062 62.3633 15.1062H62.4173C62.564 15.1062 62.6187 15.1386 62.689 15.2679L62.9177 15.7045C62.9717 15.8123 62.9553 15.8391 62.8358 15.8391H62.7811C62.6781 15.8391 62.6022 15.7961 62.5477 15.7099L62.276 15.2626ZM40.2156 15.7101C40.1616 15.7963 40.0852 15.8394 39.9821 15.8394H39.9281C39.8135 15.8394 39.7868 15.8126 39.8463 15.7047L40.0744 15.2679C40.1453 15.1389 40.1998 15.1063 40.3467 15.1063H40.4007C40.5474 15.1063 40.5693 15.1388 40.4874 15.2627L40.2156 15.7101ZM53.2643 17.02C53.2643 16.6371 53.0248 16.4486 52.5524 16.4486C52.0691 16.4486 51.8301 16.637 51.8301 17.02V17.0844C51.8301 17.4724 52.0035 17.6665 52.5524 17.6665C53.1012 17.6665 53.2643 17.4724 53.2643 17.0844V17.02ZM59.9296 17.7206C59.9296 18.2381 60.109 18.4698 60.7125 18.4698C61.3044 18.4698 61.4948 18.2381 61.4948 17.7206V17.2192C61.4948 16.702 61.3044 16.47 60.7125 16.47C60.12 16.47 59.9296 16.702 59.9296 17.2192V17.7206ZM48.9507 17.5754H48.3152C47.8313 17.5754 47.6086 17.7045 47.6086 18.0439C47.6086 18.3514 47.8094 18.5023 48.2169 18.5023C48.7166 18.5023 48.9507 18.3889 48.9507 17.9845V17.5754ZM57.0442 17.5754H56.4086C55.9253 17.5754 55.7021 17.7045 55.7021 18.0439C55.7021 18.3514 55.9034 18.5023 56.3109 18.5023C56.8107 18.5023 57.0442 18.3889 57.0442 17.9845V17.5754ZM54.3013 16.3137C54.3013 16.179 54.3286 16.141 54.4754 16.141H54.5348C54.6706 16.141 54.7088 16.1792 54.7088 16.3137V18.6264C54.7088 18.7717 54.6706 18.7984 54.5348 18.7984H54.4754C54.3286 18.7984 54.3013 18.7717 54.3013 18.6264V16.3137ZM62.5912 16.3137C62.5912 16.179 62.6295 16.141 62.7653 16.141H62.8247C62.9714 16.141 62.9987 16.1792 62.9987 16.3137V18.6264C62.9987 18.7717 62.9714 18.7984 62.8247 18.7984H62.7653C62.6295 18.7984 62.5912 18.7717 62.5912 18.6264V16.3137ZM39.7868 16.3138C39.7868 16.1792 39.8244 16.1412 39.9602 16.1412H40.0202C40.167 16.1412 40.1937 16.1793 40.1937 16.3138V18.6264C40.1937 18.7719 40.167 18.7987 40.0202 18.7987H39.9602C39.8244 18.7987 39.7868 18.772 39.7868 18.6264V16.3138ZM66.6483 15.1979C66.6483 15.0525 66.6871 15.0255 66.8224 15.0255H66.8824C67.0291 15.0255 67.0565 15.0525 67.0565 15.1979V16.4538C67.2189 16.2111 67.5016 16.0874 67.9091 16.0874C68.5774 16.0874 68.9139 16.3999 68.9139 17.0306V18.6264C68.9139 18.7719 68.8872 18.7985 68.7399 18.7985H68.6749C68.5282 18.7985 68.5009 18.7719 68.5009 18.6264V17.0791C68.5009 16.6534 68.3111 16.4698 67.8059 16.4698C67.2844 16.4698 67.0563 16.675 67.0563 17.171V18.6264C67.0563 18.7719 67.029 18.7985 66.8823 18.7985H66.8222C66.687 18.7985 66.6482 18.7719 66.6482 18.6264V15.1979H66.6483ZM64.0958 18.6264C64.0958 18.7717 64.0685 18.7985 63.9217 18.7985H63.8617C63.7259 18.7985 63.6883 18.7717 63.6883 18.6264V17.0954C63.6883 16.4213 64.0685 16.0873 64.8241 16.0873C65.6221 16.0873 65.9539 16.4428 65.9539 17.0954V18.6264C65.9539 18.7717 65.9266 18.7985 65.7798 18.7985H65.7144C65.5683 18.7985 65.5409 18.7717 65.5409 18.6264V17.0954C65.5409 16.664 65.3723 16.4698 64.8241 16.4698C64.2746 16.4698 64.0958 16.6694 64.0958 17.0954V18.6264ZM38.6628 18.055C38.5814 18.3621 38.4943 18.5723 38.3911 18.6856C38.2878 18.7931 38.1248 18.8471 37.8912 18.8471C37.6577 18.8471 37.4892 18.7931 37.386 18.6856C37.2829 18.5723 37.1959 18.3621 37.1144 18.055L36.4516 15.478C36.4134 15.3326 36.4407 15.2951 36.5926 15.2951H36.6526C36.8046 15.2951 36.8535 15.3324 36.8917 15.478L37.5543 18.1031C37.625 18.3997 37.7013 18.4697 37.8912 18.4697C38.0708 18.4697 38.1522 18.3997 38.2227 18.1031L38.8855 15.478C38.9234 15.3326 38.9723 15.2951 39.1247 15.2951H39.1841C39.3362 15.2951 39.3635 15.3324 39.3254 15.478L38.6628 18.055ZM62.3802 15.6883C62.3802 15.8019 62.3419 15.8394 62.2279 15.8394H61.9017V17.7263C61.9017 18.4755 61.5051 18.8524 60.7125 18.8524C59.8919 18.8524 59.5227 18.4755 59.5227 17.7263V17.2248C59.5227 16.4647 59.8975 16.0876 60.647 16.0876C61.0655 16.0876 61.348 16.2165 61.4948 16.481V15.8392H60.7555C60.6306 15.8392 60.6033 15.8017 60.6033 15.6882V15.6452C60.6033 15.532 60.6306 15.4942 60.7555 15.4942H61.4948V15.1978C61.4948 15.0524 61.5215 15.0254 61.6682 15.0254H61.7282C61.864 15.0254 61.9017 15.0524 61.9017 15.1978V15.4942H62.2279C62.3419 15.4942 62.3802 15.532 62.3802 15.6452V15.6883ZM42.1549 17.203C42.1549 16.4968 42.5407 16.0874 43.3666 16.0874C43.5461 16.0874 43.7038 16.1087 43.8451 16.1575C43.9749 16.2006 44.0076 16.2384 44.0076 16.3623V16.4164C44.0076 16.5511 43.9749 16.5886 43.8451 16.5457C43.7093 16.4971 43.551 16.47 43.3776 16.47C42.7694 16.47 42.5626 16.7072 42.5626 17.2086V17.7316C42.5626 18.2763 42.807 18.4701 43.4103 18.4701C43.5947 18.4701 43.7578 18.4484 43.8991 18.4002C44.0241 18.3568 44.0622 18.4002 44.0622 18.535V18.5886C44.0622 18.7019 44.024 18.7452 43.8882 18.7828C43.736 18.8314 43.568 18.8527 43.383 18.8527C42.5516 18.8527 42.1549 18.4969 42.1549 17.7372V17.203ZM49.3576 18.0009C49.3576 18.5991 49.0047 18.8524 48.2224 18.8524C47.5978 18.8524 47.2011 18.6046 47.2011 18.0438C47.2011 17.4834 47.5705 17.257 48.3096 17.257H48.9506V16.9334C48.9506 16.5669 48.7008 16.4428 48.2386 16.4428C47.9996 16.4428 47.799 16.4646 47.6413 16.502C47.511 16.529 47.4673 16.4966 47.4673 16.3673V16.3243C47.4673 16.2002 47.5 16.1678 47.6304 16.1408C47.8094 16.1034 48.0052 16.0872 48.2169 16.0872C48.9774 16.0872 49.3576 16.3672 49.3576 16.9333V18.0009ZM57.4517 18.0009C57.4517 18.5991 57.0988 18.8524 56.3163 18.8524C55.6917 18.8524 55.2951 18.6046 55.2951 18.0438C55.2951 17.4834 55.6644 17.257 56.4031 17.257H57.044V16.9334C57.044 16.5669 56.7942 16.4428 56.3327 16.4428C56.0937 16.4428 55.8925 16.4646 55.7348 16.502C55.6044 16.529 55.5607 16.4966 55.5607 16.3673V16.3243C55.5607 16.2002 55.5935 16.1678 55.7238 16.1408C55.9033 16.1034 56.0993 16.0872 56.3108 16.0872C57.0713 16.0872 57.4515 16.3672 57.4515 16.9333V18.0009H57.4517ZM44.8549 17.8448C44.8549 18.2705 45.0337 18.4699 45.5825 18.4699C46.1314 18.4699 46.3054 18.276 46.3054 17.8448V16.3137C46.3054 16.179 46.3431 16.141 46.4788 16.141H46.5389C46.6856 16.141 46.7129 16.1792 46.7129 16.3137V17.8448C46.7129 18.4967 46.3812 18.8525 45.5825 18.8525C44.8275 18.8525 44.4472 18.5185 44.4472 17.8448V16.3137C44.4472 16.179 44.4855 16.141 44.6213 16.141H44.6807C44.8274 16.141 44.8547 16.1792 44.8547 16.3137V17.8448H44.8549ZM52.0199 18.7395C51.8519 18.8204 51.7645 18.9711 51.7645 19.1813C51.7645 19.5316 51.9659 19.6235 52.5522 19.6235C53.1174 19.6235 53.3345 19.5316 53.3345 19.1655C53.3345 18.8256 53.1338 18.7664 52.5522 18.7664C52.3188 18.7663 52.1393 18.7556 52.0199 18.7395ZM53.6772 17.0844C53.6772 17.7099 53.3018 18.0225 52.5522 18.0225C52.2587 18.0225 52.069 18.0386 51.9767 18.0656C51.8894 18.0926 51.8463 18.1461 51.8463 18.2273C51.8463 18.3028 51.8894 18.3514 51.9816 18.3781C52.0744 18.3998 52.2642 18.4105 52.5522 18.4105C53.0034 18.4105 53.3128 18.4643 53.4813 18.5778C53.6553 18.6858 53.742 18.8742 53.742 19.1492C53.742 19.4564 53.6553 19.6665 53.4759 19.7908C53.3018 19.9147 52.9926 19.974 52.5522 19.974C52.1017 19.974 51.7863 19.9147 51.6122 19.7908C51.4436 19.6722 51.3569 19.4832 51.3569 19.2248C51.3569 18.9658 51.46 18.772 51.6613 18.6478C51.5146 18.5779 51.4382 18.4594 51.4382 18.2922C51.4382 18.0551 51.5849 17.9149 51.8784 17.8718C51.574 17.7477 51.4223 17.4838 51.4223 17.0847V17.0202C51.4223 16.4326 51.8408 16.0878 52.5521 16.0878C52.7643 16.0878 52.9487 16.1252 53.1119 16.1954L53.4217 15.9205C53.5139 15.8396 53.557 15.8396 53.6443 15.9205L53.6819 15.958C53.7692 16.039 53.7692 16.082 53.6819 16.1682L53.4375 16.4165C53.5952 16.5619 53.677 16.7615 53.677 17.0202V17.0844H53.6772Z" fill="#009EDB"/>
</svg>
