<svg width="28" height="24" viewBox="0 0 28 24" fill="none" xmlns="http://www.w3.org/2000/svg">
<g clip-path="url(#clip0_618_394)">
<path d="M27.9193 13.5804C27.9194 13.5805 27.9192 13.5803 27.9193 13.5804L22.6484 0.345567C22.5365 0.0643679 22.2178 -0.0729093 21.9366 0.0389538C21.9368 0.0388168 21.9363 0.0390223 21.9366 0.0389538L0.553044 8.55371C0.465841 8.59138 0.390216 8.65153 0.333839 8.72797C0.156009 8.82038 0.043666 9.00328 0.041748 9.20365V23.452C0.041748 23.7546 0.287121 24 0.589761 24H23.6063C23.9089 24 24.1543 23.7546 24.1543 23.452V15.6702L27.6134 14.2925C27.8945 14.1804 28.0314 13.8616 27.9193 13.5804ZM23.0583 22.904H1.13777V9.75166H23.0583V22.904ZM9.18534 8.65838L18.3613 5.00203C19.1802 5.86282 20.3149 6.35206 21.503 6.35672L22.4182 8.65838H9.18534ZM24.1543 14.4931V9.20365C24.1543 8.90101 23.9089 8.65564 23.6063 8.65564H23.5975L22.4363 5.73911C22.4234 5.71479 22.4084 5.69164 22.3913 5.67006C22.3326 5.40612 22.0881 5.22603 21.8187 5.24809C20.7132 5.34886 19.6317 4.88318 18.9454 4.01068C18.7747 3.7999 18.4745 3.74749 18.2423 3.88792C18.2163 3.89101 18.1905 3.8958 18.1651 3.90217L6.9626 8.363C6.82704 8.41615 6.7186 8.52158 6.66174 8.65564H3.25968L21.8329 1.2602L26.6987 13.4781L24.1543 14.4931Z" fill="#00A76F"/>
<path d="M2.62468 19.2083C3.68865 19.5228 4.52122 20.3543 4.83701 21.4179C4.90627 21.65 5.11978 21.8091 5.36201 21.8092C5.39043 21.8074 5.41866 21.8031 5.4464 21.7966C5.47099 21.8035 5.49613 21.8087 5.52148 21.8119H18.6738C18.6964 21.809 18.7187 21.8044 18.7407 21.7982C19.0145 21.8648 19.2904 21.6969 19.357 21.4231L19.3577 21.4201C19.6727 20.3554 20.5054 19.5227 21.5701 19.2077C21.8282 19.1288 21.9887 18.8715 21.946 18.6049C21.9533 18.5783 21.9586 18.5512 21.9619 18.5238V14.1397C21.9587 14.1122 21.9532 14.0851 21.9454 14.0586C21.9884 13.7919 21.8279 13.5345 21.5695 13.4558C20.5049 13.1409 19.6724 12.3078 19.3583 11.2429C19.279 10.9829 19.0191 10.8221 18.7511 10.867C18.7257 10.8599 18.6999 10.8548 18.6738 10.8516H5.52148C5.49387 10.8549 5.46654 10.8604 5.43982 10.8681C5.17328 10.8256 4.91613 10.986 4.83701 11.244C4.52183 12.3084 3.6892 13.1409 2.62468 13.4558C2.3665 13.5347 2.20607 13.792 2.24874 14.0586C2.24162 14.0852 2.23648 14.1123 2.2334 14.1397V18.5238C2.23655 18.5496 2.24169 18.5751 2.24874 18.6C2.20381 18.8683 2.36458 19.1285 2.62468 19.2083ZM3.32943 14.3622C4.42984 13.9202 5.302 13.0481 5.74397 11.9477H18.4508C18.8929 13.0481 19.7653 13.9202 20.8659 14.3622V18.3013C19.7658 18.7438 18.8938 19.6158 18.4513 20.7159H5.74397C5.30152 19.6158 4.42949 18.7438 3.32943 18.3013V14.3622Z" fill="#00A76F"/>
<path d="M12.0981 19.6153C13.9141 19.6153 15.3862 18.1432 15.3862 16.3272C15.3862 14.5112 13.9141 13.0391 12.0981 13.0391C10.2821 13.0391 8.81006 14.5112 8.81006 16.3272C8.81184 18.1424 10.2829 19.6135 12.0981 19.6153ZM12.0981 14.1352C13.3087 14.1352 14.2902 15.1166 14.2902 16.3272C14.2902 17.5378 13.3087 18.5193 12.0981 18.5193C10.8875 18.5193 9.90608 17.5378 9.90608 16.3272C9.90608 15.1166 10.8875 14.1352 12.0981 14.1352Z" fill="#00A76F"/>
<path d="M6.07007 17.1518C6.52403 17.1518 6.89209 16.7838 6.89209 16.3298C6.89209 15.8758 6.52403 15.5078 6.07007 15.5078C5.61611 15.5078 5.24805 15.8758 5.24805 16.3298C5.24805 16.7838 5.61611 17.1518 6.07007 17.1518ZM6.07007 16.0558C6.22139 16.0558 6.34407 16.1785 6.34407 16.3298C6.34407 16.4811 6.22139 16.6038 6.07007 16.6038C5.91875 16.6038 5.79606 16.4811 5.79606 16.3298C5.79606 16.1785 5.91875 16.0558 6.07007 16.0558Z" fill="#00A76F"/>
<path d="M18.1262 17.1518C18.5802 17.1518 18.9482 16.7838 18.9482 16.3298C18.9482 15.8758 18.5802 15.5078 18.1262 15.5078C17.6723 15.5078 17.3042 15.8758 17.3042 16.3298C17.3042 16.7838 17.6723 17.1518 18.1262 17.1518ZM18.1262 16.0558C18.2775 16.0558 18.4002 16.1785 18.4002 16.3298C18.4002 16.4811 18.2775 16.6038 18.1262 16.6038C17.9749 16.6038 17.8522 16.4811 17.8522 16.3298C17.8522 16.1785 17.9749 16.0558 18.1262 16.0558Z" fill="#00A76F"/>
</g>
<defs>
<clipPath id="clip0_618_394">
<rect width="28" height="24" fill="white"/>
</clipPath>
</defs>
</svg>
