<svg width="28" height="24" viewBox="0 0 28 24" fill="none" xmlns="http://www.w3.org/2000/svg">
<path d="M27.9192 13.5804C27.9191 13.5803 27.9191 13.5802 27.919 13.5801L22.6483 0.345567C22.5364 0.0643679 22.2177 -0.0729093 21.9365 0.0389538C21.9362 0.0390223 21.936 0.0390908 21.9358 0.0392278L0.552922 8.55371C0.465719 8.59138 0.390094 8.65153 0.333717 8.72797C0.155887 8.82038 0.043544 9.00328 0.041626 9.20365V23.452C0.041626 23.7546 0.286999 24 0.589639 24H23.6062C23.9088 24 24.1542 23.7546 24.1542 23.452V15.6702L27.6133 14.2925C27.8944 14.1804 28.0313 13.8616 27.9192 13.5804ZM23.0582 22.904H1.13765V9.75166H23.0582V22.904ZM9.18522 8.65838L18.3612 5.00203C19.1801 5.86282 20.3148 6.35206 21.5029 6.35672L22.4181 8.65838H9.18522ZM24.1542 14.4931V9.20365C24.1542 8.90101 23.9088 8.65564 23.6062 8.65564H23.5974L22.4362 5.73911C22.4233 5.71479 22.4083 5.69164 22.3912 5.67006C22.3325 5.40612 22.088 5.22603 21.8186 5.24809C20.7131 5.34886 19.6316 4.88318 18.9453 4.01068C18.7746 3.7999 18.4744 3.74749 18.2422 3.88792C18.2162 3.89101 18.1904 3.8958 18.165 3.90217L6.96248 8.363C6.82692 8.41615 6.71848 8.52158 6.66162 8.65564H3.25956L21.8328 1.2602L26.6986 13.4781L24.1542 14.4931Z" fill="#E51A83"/>
<path d="M2.6248 19.2047C3.68877 19.5192 4.52134 20.3507 4.83713 21.4143C4.90639 21.6464 5.1199 21.8055 5.36213 21.8056C5.39055 21.8038 5.41878 21.7995 5.44652 21.793C5.47111 21.7999 5.49625 21.8051 5.5216 21.8083H18.6739C18.6965 21.8054 18.7188 21.8008 18.7408 21.7946C19.0146 21.8612 19.2905 21.6933 19.3571 21.4195C19.3573 21.4185 19.3576 21.4175 19.3578 21.4165C19.6728 20.3518 20.5055 19.5191 21.5702 19.2041C21.8283 19.1252 21.9888 18.8679 21.9461 18.6013C21.9534 18.5747 21.9587 18.5476 21.962 18.5202V14.1361C21.9588 14.1086 21.9533 14.0815 21.9455 14.055C21.9885 13.7883 21.828 13.5309 21.5696 13.4522C20.505 13.1373 19.6725 12.3042 19.3584 11.2393C19.2791 10.9793 19.0192 10.8185 18.7512 10.8634C18.7258 10.8563 18.7 10.8512 18.6739 10.848H5.5216C5.49399 10.8513 5.46666 10.8568 5.43994 10.8645C5.1734 10.822 4.91625 10.9824 4.83713 11.2404C4.52195 12.3048 3.68932 13.1373 2.6248 13.4522C2.36662 13.5311 2.20619 13.7884 2.24886 14.055C2.24174 14.0816 2.2366 14.1087 2.23352 14.1361V18.5202C2.23667 18.546 2.24181 18.5715 2.24886 18.5964C2.20393 18.8647 2.3647 19.1249 2.6248 19.2047ZM3.32955 14.3586C4.42996 13.9166 5.30212 13.0445 5.74409 11.9441H18.4509C18.893 13.0445 19.7654 13.9166 20.866 14.3586V18.2977C19.7659 18.7402 18.8939 19.6122 18.4514 20.7123H5.74409C5.30164 19.6122 4.42961 18.7402 3.32955 18.2977V14.3586Z" fill="#E51A83"/>
<path d="M12.098 19.6162C13.914 19.6162 15.3861 18.1441 15.3861 16.3281C15.3861 14.5121 13.914 13.04 12.098 13.04C10.282 13.04 8.80994 14.5121 8.80994 16.3281C8.81172 18.1433 10.2828 19.6144 12.098 19.6162ZM12.098 14.1361C13.3086 14.1361 14.2901 15.1175 14.2901 16.3281C14.2901 17.5387 13.3086 18.5202 12.098 18.5202C10.8874 18.5202 9.90596 17.5387 9.90596 16.3281C9.90596 15.1175 10.8874 14.1361 12.098 14.1361Z" fill="#E51A83"/>
<path d="M6.07007 17.15C6.52403 17.15 6.89209 16.782 6.89209 16.328C6.89209 15.874 6.52403 15.506 6.07007 15.506C5.61611 15.506 5.24805 15.874 5.24805 16.328C5.24805 16.782 5.61611 17.15 6.07007 17.15ZM6.07007 16.054C6.22139 16.054 6.34407 16.1767 6.34407 16.328C6.34407 16.4793 6.22139 16.602 6.07007 16.602C5.91875 16.602 5.79606 16.4793 5.79606 16.328C5.79606 16.1767 5.91875 16.054 6.07007 16.054Z" fill="#E51A83"/>
<path d="M18.1262 17.15C18.5802 17.15 18.9482 16.782 18.9482 16.328C18.9482 15.874 18.5802 15.506 18.1262 15.506C17.6723 15.506 17.3042 15.874 17.3042 16.328C17.3042 16.782 17.6723 17.15 18.1262 17.15ZM18.1262 16.054C18.2775 16.054 18.4002 16.1767 18.4002 16.328C18.4002 16.4793 18.2775 16.602 18.1262 16.602C17.9749 16.602 17.8522 16.4793 17.8522 16.328C17.8522 16.1767 17.9749 16.054 18.1262 16.054Z" fill="#E51A83"/>
</svg>
