<svg width="17" height="17" viewBox="0 0 17 17" fill="none" xmlns="http://www.w3.org/2000/svg">
<path fill-rule="evenodd" clip-rule="evenodd" d="M0 4.5C0 4.22386 0.223858 4 0.5 4H16.5C16.7761 4 17 4.22386 17 4.5V14.5C17 15.8807 15.8807 17 14.5 17H2.5C1.11929 17 0 15.8807 0 14.5V4.5ZM1 5V14.5C1 15.3284 1.67157 16 2.5 16H14.5C15.3284 16 16 15.3284 16 14.5V5H1Z" fill="#E51A83"/>
<path fill-rule="evenodd" clip-rule="evenodd" d="M4.14646 0.146447C4.24023 0.0526784 4.36741 0 4.50001 0H12.5C12.6326 0 12.7598 0.0526784 12.8536 0.146447L16.8536 4.14645C16.9966 4.28945 17.0393 4.5045 16.962 4.69134C16.8846 4.87818 16.7022 5 16.5 5H0.500015C0.297783 5 0.115465 4.87818 0.0380748 4.69134C-0.0393156 4.5045 0.00346223 4.28945 0.146461 4.14645L4.14646 0.146447ZM4.70712 1L1.70712 4H15.2929L12.2929 1H4.70712Z" fill="#E51A83"/>
<path fill-rule="evenodd" clip-rule="evenodd" d="M4 8.5C4 8.22386 4.22386 8 4.5 8H8.5C8.77614 8 9 8.22386 9 8.5C9 8.77614 8.77614 9 8.5 9H4.5C4.22386 9 4 8.77614 4 8.5Z" fill="#E51A83"/>
</svg>
